<svg width="40" height="40" fill="none" xmlns="http://www.w3.org/2000/svg"><path d="M7.75 4A3.25 3.25 0 0 1 11 .75h16c.121 0 .238.048.323.134l10.793 10.793a.457.457 0 0 1 .134.323v24A3.25 3.25 0 0 1 35 39.25H11A3.25 3.25 0 0 1 7.75 36V4Z" stroke="#D0D5DD" stroke-width="1.5"/><path d="M27 .5V8a4 4 0 0 0 4 4h7.5" stroke="#D0D5DD" stroke-width="1.5"/><rect x="1" y="18" width="27" height="16" rx="2" fill="#6938EF"/><path d="M6.347 30H4.699l2.51-7.273h1.982L11.698 30H10.05L8.23 24.39h-.057L6.347 30Zm-.103-2.859h3.892v1.2H6.244v-1.2ZM12.574 30v-7.273h4.9v1.268h-3.363v1.733h3.11v1.268h-3.11v1.736h3.377V30h-4.915Zm6.123 0v-7.273h2.869c.552 0 1.021.106 1.41.316.388.209.684.499.887.87.206.37.31.796.31 1.279 0 .483-.105.909-.313 1.278-.208.37-.51.657-.906.863-.393.206-.869.309-1.427.309h-1.829V26.41h1.58c.296 0 .54-.051.732-.153.194-.104.338-.247.433-.43.097-.184.146-.396.146-.635 0-.242-.049-.452-.146-.632a.972.972 0 0 0-.433-.423c-.194-.102-.44-.153-.739-.153h-1.037V30h-1.537Z" fill="#fff"/></svg>