<svg width="15" height="14" fill="none" xmlns="http://www.w3.org/2000/svg"><path d="m6.188 12.104.859.478c.165.092.248.138.335.156a.581.581 0 0 0 .236 0c.087-.018.17-.064.335-.156l.86-.478m-5.25-1.458-.833-.462c-.175-.097-.262-.146-.326-.215a.583.583 0 0 1-.125-.212c-.029-.09-.029-.19-.029-.39V8.46m0-2.917v-.91c0-.199 0-.299.03-.388a.583.583 0 0 1 .124-.212c.064-.07.151-.118.326-.215l.833-.463m2.624-1.458.86-.477c.165-.092.248-.138.335-.156a.583.583 0 0 1 .236 0c.087.018.17.064.335.156l.86.477m2.624 1.458.833.463c.175.097.262.146.326.215a.584.584 0 0 1 .125.212c.029.089.029.189.029.389v.909m0 2.917v.909c0 .2 0 .3-.03.389a.584.584 0 0 1-.124.212c-.064.07-.151.118-.326.215l-.832.462m-5.25-4.375 1.312.73m0 0 1.313-.73m-1.313.73v1.458M2.25 4.084l1.313.729m7.874 0 1.313-.73M7.5 11.376v1.459" stroke="#A5A3A9" stroke-width="1.5" stroke-linecap="round" stroke-linejoin="round"/></svg>