<svg width="15" height="15" fill="none" xmlns="http://www.w3.org/2000/svg"><g clip-path="url(#a)"><path d="M3.083 12.894v-2.815m0-5.629V1.636M1.676 3.043H4.49m-2.814 8.444H4.49m3.378-9.288L6.89 4.737c-.158.412-.238.619-.361.792-.11.154-.244.289-.398.398-.173.124-.38.203-.793.362l-2.538.976 2.538.976c.413.159.62.238.793.362.154.109.288.243.398.397.123.174.203.38.361.793l.977 2.538.976-2.538c.159-.413.238-.62.361-.793.11-.154.244-.288.398-.397.174-.124.38-.203.793-.362l2.538-.976-2.538-.976c-.413-.16-.62-.238-.793-.362a1.689 1.689 0 0 1-.398-.398c-.123-.173-.202-.38-.361-.792l-.976-2.538Z" stroke="currentColor" stroke-width="1.689" stroke-linecap="round" stroke-linejoin="round"/></g><defs><clipPath id="a"><path fill="#fff" transform="translate(.55 .51)" d="M0 0h13.51v13.51H0z"/></clipPath></defs></svg>