<svg width="52" height="52" fill="none" xmlns="http://www.w3.org/2000/svg"><g filter="url(#a)"><path d="M2.5 11A9.5 9.5 0 0 1 12 1.5h28a9.5 9.5 0 0 1 9.5 9.5v28a9.5 9.5 0 0 1-9.5 9.5H12A9.5 9.5 0 0 1 2.5 39V11Z" stroke="#EAECF0" shape-rendering="crispEdges"/><path d="M26 25h.01m3.525 3.535c-4.686 4.686-10.068 6.903-12.02 4.95-1.953-1.953.263-7.335 4.949-12.02 4.686-4.687 10.068-6.903 12.02-4.95 1.953 1.952-.263 7.334-4.949 12.02Zm0-7.071c4.686 4.686 6.902 10.068 4.95 12.02-1.953 1.953-7.335-.263-12.021-4.949-4.686-4.686-6.902-10.068-4.95-12.02 1.953-1.953 7.335.263 12.021 4.949ZM26.5 25a.5.5 0 1 1-1 0 .5.5 0 0 1 1 0Z" stroke="#344054" stroke-width="2" stroke-linecap="round" stroke-linejoin="round"/></g><defs><filter id="a" x="0" y="0" width="52" height="52" filterUnits="userSpaceOnUse" color-interpolation-filters="sRGB"><feFlood flood-opacity="0" result="BackgroundImageFix"/><feColorMatrix in="SourceAlpha" values="0 0 0 0 0 0 0 0 0 0 0 0 0 0 0 0 0 0 127 0" result="hardAlpha"/><feOffset dy="1"/><feGaussianBlur stdDeviation="1"/><feComposite in2="hardAlpha" operator="out"/><feColorMatrix values="0 0 0 0 0.0627451 0 0 0 0 0.0941176 0 0 0 0 0.156863 0 0 0 0.05 0"/><feBlend in2="BackgroundImageFix" result="effect1_dropShadow_550_8026"/><feBlend in="SourceGraphic" in2="effect1_dropShadow_550_8026" result="shape"/></filter></defs></svg>