<svg width="40" height="40" fill="none" xmlns="http://www.w3.org/2000/svg"><path d="M7.75 4A3.25 3.25 0 0 1 11 .75h16c.121 0 .238.048.323.134l10.793 10.793a.457.457 0 0 1 .134.323v24A3.25 3.25 0 0 1 35 39.25H11A3.25 3.25 0 0 1 7.75 36V4Z" stroke="#D0D5DD" stroke-width="1.5"/><path d="M27 .5V8a4 4 0 0 0 4 4h7.5" stroke="#D0D5DD" stroke-width="1.5"/><rect x="1" y="18" width="27" height="16" rx="2" fill="#444CE7"/><path d="M11.236 25.273H9.681a1.521 1.521 0 0 0-.174-.536 1.364 1.364 0 0 0-.337-.405 1.484 1.484 0 0 0-.476-.255 1.82 1.82 0 0 0-.579-.09c-.376 0-.704.094-.984.282-.279.184-.496.454-.65.81-.153.352-.23.78-.23 1.285 0 .518.077.954.23 1.306.157.353.375.62.654.8.28.18.602.27.97.27.205 0 .396-.028.571-.082a1.37 1.37 0 0 0 .813-.625c.093-.152.157-.325.192-.519l1.556.007a2.903 2.903 0 0 1-.945 1.793 3.024 3.024 0 0 1-.959.576c-.37.14-.787.21-1.253.21-.65 0-1.23-.147-1.74-.44a3.126 3.126 0 0 1-1.208-1.276c-.293-.556-.44-1.23-.44-2.02 0-.794.149-1.468.447-2.024.298-.557.703-.98 1.215-1.272a3.403 3.403 0 0 1 1.726-.44c.42 0 .812.059 1.171.177.363.119.683.292.963.519.28.225.506.5.682.827.177.327.29.701.34 1.122Zm5.048-.454a.899.899 0 0 0-.365-.668c-.216-.158-.508-.238-.878-.238-.25 0-.462.036-.635.107a.894.894 0 0 0-.398.288.692.692 0 0 0-.135.419.599.599 0 0 0 .082.34.854.854 0 0 0 .252.253c.107.068.23.129.37.18.139.05.288.093.447.129l.653.156c.317.07.609.166.874.284.265.118.495.264.689.437.194.172.344.376.45.61.11.235.165.504.168.807-.003.445-.116.83-.341 1.157-.223.325-.545.577-.966.757-.42.177-.925.266-1.517.266-.587 0-1.098-.09-1.534-.27a2.247 2.247 0 0 1-1.015-.799c-.242-.355-.368-.794-.38-1.317h1.488c.016.244.086.447.21.61.125.161.292.283.5.366.21.08.448.12.714.12.26 0 .486-.037.678-.113a1.04 1.04 0 0 0 .451-.316.73.73 0 0 0 .16-.465c0-.163-.049-.3-.146-.412a1.103 1.103 0 0 0-.419-.284 4.273 4.273 0 0 0-.671-.213l-.792-.199c-.613-.15-1.097-.382-1.452-.7-.356-.317-.532-.744-.53-1.282-.002-.44.115-.825.352-1.154.24-.329.567-.585.984-.77.416-.185.89-.277 1.42-.277.54 0 1.011.092 1.414.277.404.184.72.441.944.77.225.33.341.71.348 1.144h-1.474Zm6.553 0a.899.899 0 0 0-.366-.668c-.215-.158-.507-.238-.877-.238-.25 0-.463.036-.635.107a.894.894 0 0 0-.398.288.692.692 0 0 0-.135.419.598.598 0 0 0 .082.34.853.853 0 0 0 .252.253c.106.068.23.129.37.18.139.05.288.093.447.129l.653.156c.317.07.608.166.873.284.266.118.495.264.69.437.194.172.344.376.45.61.11.235.165.504.167.807-.002.445-.116.83-.34 1.157-.223.325-.545.577-.966.757-.42.177-.925.266-1.517.266-.587 0-1.098-.09-1.534-.27a2.247 2.247 0 0 1-1.015-.799c-.242-.355-.369-.794-.38-1.317h1.487c.017.244.087.447.21.61.125.161.292.283.5.366.211.08.45.12.714.12.26 0 .487-.037.679-.113a1.04 1.04 0 0 0 .45-.316.73.73 0 0 0 .16-.465c0-.163-.048-.3-.145-.412a1.103 1.103 0 0 0-.42-.284 4.274 4.274 0 0 0-.67-.213l-.792-.199c-.613-.15-1.098-.382-1.453-.7-.355-.317-.531-.744-.529-1.282-.002-.44.115-.825.352-1.154.239-.329.567-.585.983-.77.417-.185.89-.277 1.42-.277.54 0 1.012.092 1.414.277.405.184.72.441.945.77.225.33.34.71.348 1.144h-1.474Z" fill="#fff"/></svg>