<svg width="40" height="40" fill="none" xmlns="http://www.w3.org/2000/svg"><path d="M7.75 4A3.25 3.25 0 0 1 11 .75h16c.121 0 .238.048.323.134l10.793 10.793a.457.457 0 0 1 .134.323v24A3.25 3.25 0 0 1 35 39.25H11A3.25 3.25 0 0 1 7.75 36V4Z" stroke="#D0D5DD" stroke-width="1.5"/><path d="M27 .5V8a4 4 0 0 0 4 4h7.5" stroke="#D0D5DD" stroke-width="1.5"/><rect x="1" y="18" width="29" height="16" rx="2" fill="#155EEF"/><path d="M7.402 30H4.824v-7.273h2.599c.731 0 1.361.146 1.89.437.527.289.933.704 1.217 1.246.287.543.43 1.191.43 1.947 0 .757-.143 1.408-.43 1.953a2.953 2.953 0 0 1-1.225 1.253c-.53.291-1.165.437-1.903.437Zm-1.04-1.317h.976c.454 0 .837-.081 1.147-.242.312-.163.547-.415.703-.756.158-.344.238-.786.238-1.328 0-.538-.08-.977-.238-1.318a1.54 1.54 0 0 0-.7-.753c-.31-.16-.692-.241-1.147-.241h-.98v4.637Zm12.42-2.32c0 .794-.15 1.468-.45 2.025a3.127 3.127 0 0 1-1.222 1.275 3.452 3.452 0 0 1-1.733.436 3.444 3.444 0 0 1-1.74-.44 3.135 3.135 0 0 1-1.219-1.275c-.298-.556-.447-1.23-.447-2.02 0-.794.15-1.468.447-2.024a3.11 3.11 0 0 1 1.219-1.272 3.444 3.444 0 0 1 1.74-.44c.641 0 1.219.147 1.733.44.516.291.923.715 1.221 1.271.3.557.451 1.232.451 2.025Zm-1.559 0c0-.513-.077-.946-.23-1.3-.152-.352-.366-.62-.643-.802a1.73 1.73 0 0 0-.973-.273 1.73 1.73 0 0 0-.973.273c-.277.183-.493.45-.647.803-.151.353-.227.786-.227 1.3 0 .513.076.947.227 1.3.154.352.37.62.647.802.277.182.6.273.973.273.371 0 .696-.09.973-.273.277-.182.49-.45.642-.803.154-.352.231-.786.231-1.3Zm9.115-1.09h-1.555a1.521 1.521 0 0 0-.174-.536 1.365 1.365 0 0 0-.338-.405 1.484 1.484 0 0 0-.476-.255 1.82 1.82 0 0 0-.578-.09c-.377 0-.705.094-.984.282-.28.184-.496.454-.65.81-.154.352-.23.78-.23 1.285 0 .518.076.954.23 1.306.156.353.374.62.654.8.279.18.602.27.969.27.206 0 .396-.028.572-.082a1.371 1.371 0 0 0 .813-.625c.092-.152.156-.325.192-.519l1.555.007a2.9 2.9 0 0 1-.945 1.793 3.026 3.026 0 0 1-.958.576c-.37.14-.787.21-1.254.21-.649 0-1.229-.147-1.74-.44a3.126 3.126 0 0 1-1.207-1.276c-.294-.556-.44-1.23-.44-2.02 0-.794.148-1.468.447-2.024.298-.557.703-.98 1.214-1.272a3.403 3.403 0 0 1 1.726-.44c.421 0 .812.059 1.172.177.362.119.683.292.962.519.28.225.507.5.682.827.178.327.291.701.341 1.122Z" fill="#fff"/></svg>