<svg width="24" height="18" fill="none" xmlns="http://www.w3.org/2000/svg"><path d="M0 2.547h21.5c1.38 0 2.5.95 2.5 2.123v10.614c0 1.172-1.12 2.123-2.5 2.123h-19c-1.38 0-2.5-.95-2.5-2.123V2.547Z" fill="#FBBC1A"/><path d="M0 5.731v8.704c0 1.172 1.12 2.123 2.5 2.123h19c1.38 0 2.5-.95 2.5-2.123V5.519c0-1.172-1.12-2.123-2.5-2.123H11v1.062c0 .703-.672 1.273-1.5 1.273H0Z" fill="url(#a)"/><path d="M0 1.698C0 .76.895 0 2 0h7c1.105 0 2 .76 2 1.698v.85H0v-.85Z" fill="#FBBC1A"/><defs><linearGradient id="a" x1="0" y1="0" x2="28.8" y2="20.323" gradientUnits="userSpaceOnUse"><stop stop-color="#FFE69C"/><stop offset="1" stop-color="#FFC937"/></linearGradient></defs></svg>