<svg width="40" height="40" fill="none" xmlns="http://www.w3.org/2000/svg"><path d="M7.75 4A3.25 3.25 0 0 1 11 .75h16c.121 0 .238.048.323.134l10.793 10.793a.457.457 0 0 1 .134.323v24A3.25 3.25 0 0 1 35 39.25H11A3.25 3.25 0 0 1 7.75 36V4Z" stroke="#D0D5DD" stroke-width="1.5"/><path d="M27 .5V8a4 4 0 0 0 4 4h7.5" stroke="#D0D5DD" stroke-width="1.5"/><rect x="1" y="18" width="23" height="16" rx="2" fill="#7F56D9"/><path d="M9.825 25.078a1.595 1.595 0 0 0-.21-.458 1.416 1.416 0 0 0-.77-.558 1.862 1.862 0 0 0-.544-.074c-.371 0-.698.092-.98.277-.28.185-.497.453-.653.806-.157.35-.235.779-.235 1.285 0 .507.077.938.231 1.293.154.355.372.626.654.813.281.185.614.277.997.277.348 0 .646-.061.892-.184.248-.126.438-.302.568-.53.133-.227.199-.495.199-.805l.312.046H8.411v-1.158h3.044v.916c0 .64-.135 1.189-.405 1.648a2.76 2.76 0 0 1-1.115 1.058c-.474.246-1.016.37-1.627.37-.681 0-1.28-.15-1.797-.452a3.13 3.13 0 0 1-1.207-1.289c-.286-.558-.43-1.221-.43-1.988 0-.59.086-1.115.256-1.577.173-.464.414-.857.724-1.179a3.13 3.13 0 0 1 1.084-.735 3.51 3.51 0 0 1 1.338-.252c.412 0 .796.06 1.15.18.356.12.67.287.945.505.277.218.504.477.679.778.175.298.287.627.337.987H9.825Zm4.322-2.35V30H12.61v-7.273h1.537ZM15.412 30v-7.273h4.816v1.268H16.95v1.733h2.958v1.268H16.95V30h-1.538Z" fill="#fff"/></svg>