<svg width="16" height="17" fill="none" xmlns="http://www.w3.org/2000/svg"><g clip-path="url(#a)"><path d="M8 6.999v3.098h4.305a3.689 3.689 0 0 1-1.607 2.408l2.596 2.014c1.513-1.396 2.386-3.447 2.386-5.884 0-.567-.05-1.112-.146-1.636H8Z" fill="#4285F4"/><path d="m3.516 9.976-.585.449-2.073 1.614C2.175 14.65 4.872 16.454 8 16.454c2.16 0 3.97-.713 5.294-1.935l-2.596-2.014c-.713.48-1.622.77-2.698.77-2.08 0-3.847-1.403-4.48-3.294l-.004-.005Z" fill="#34A853"/><path d="M.858 4.868A7.901 7.901 0 0 0 0 8.454c0 1.294.313 2.509.858 3.585 0 .007 2.662-2.065 2.662-2.065-.16-.48-.255-.99-.255-1.52 0-.531.095-1.04.255-1.52L.858 4.867Z" fill="#FBBC05"/><path d="M8 3.64c1.178 0 2.225.406 3.062 1.192l2.29-2.291C11.964 1.246 10.16.454 8 .454 4.873.454 2.175 2.25.858 4.868L3.52 6.934C4.153 5.043 5.92 3.639 8 3.639Z" fill="#EA4335"/></g><defs><clipPath id="a"><path fill="#fff" transform="translate(0 .454)" d="M0 0h16v16H0z"/></clipPath></defs></svg>