<svg width="40" height="40" fill="none" xmlns="http://www.w3.org/2000/svg"><path d="M7.75 4A3.25 3.25 0 0 1 11 .75h16c.121 0 .238.048.323.134l10.793 10.793a.457.457 0 0 1 .134.323v24A3.25 3.25 0 0 1 35 39.25H11A3.25 3.25 0 0 1 7.75 36V4Z" stroke="#D0D5DD" stroke-width="1.5"/><path d="M27 .5V8a4 4 0 0 0 4 4h7.5" stroke="#D0D5DD" stroke-width="1.5"/><rect x="1" y="18" width="31" height="16" rx="2" fill="#BA24D5"/><path d="M6.316 22.727V30H4.78v-7.273h1.537Zm7.348 0V30h-1.328l-3.164-4.577H9.12V30H7.581v-7.273h1.35l3.139 4.574h.064v-4.574h1.53ZM17.513 30h-2.578v-7.273h2.6c.73 0 1.36.146 1.889.437.527.289.933.704 1.218 1.246.286.543.43 1.191.43 1.947 0 .757-.144 1.408-.43 1.953a2.953 2.953 0 0 1-1.226 1.253c-.53.291-1.164.437-1.903.437Zm-1.04-1.317h.976c.455 0 .837-.081 1.147-.242.313-.163.547-.415.703-.756.159-.344.238-.786.238-1.328 0-.538-.08-.977-.238-1.318a1.541 1.541 0 0 0-.7-.753c-.31-.16-.692-.241-1.146-.241h-.98v4.637ZM24.788 30H22.21v-7.273h2.6c.731 0 1.36.146 1.889.437.528.289.934.704 1.218 1.246.286.543.43 1.191.43 1.947 0 .757-.144 1.408-.43 1.953a2.953 2.953 0 0 1-1.225 1.253c-.53.291-1.165.437-1.904.437Zm-1.04-1.317h.976c.455 0 .837-.081 1.147-.242.313-.163.547-.415.704-.756.158-.344.238-.786.238-1.328 0-.538-.08-.977-.238-1.318a1.541 1.541 0 0 0-.7-.753c-.31-.16-.692-.241-1.147-.241h-.98v4.637Z" fill="#fff"/></svg>