<svg width="40" height="40" fill="none" xmlns="http://www.w3.org/2000/svg"><path d="M7.75 4A3.25 3.25 0 0 1 11 .75h16c.121 0 .238.048.323.134l10.793 10.793a.457.457 0 0 1 .134.323v24A3.25 3.25 0 0 1 35 39.25H11A3.25 3.25 0 0 1 7.75 36V4Z" stroke="#D0D5DD" stroke-width="1.5"/><path d="M27 .5V8a4 4 0 0 0 4 4h7.5" stroke="#D0D5DD" stroke-width="1.5"/><rect x="1" y="18" width="33" height="16" rx="2" fill="#444CE7"/><path d="M7.91 22.727h1.52v5.071c0 .469-.106.876-.317 1.222a2.089 2.089 0 0 1-.87.799c-.372.187-.804.28-1.296.28-.438 0-.836-.076-1.193-.23a1.907 1.907 0 0 1-.845-.71c-.209-.32-.312-.721-.31-1.204H6.13c.005.191.044.356.117.493a.8.8 0 0 0 .31.313.979.979 0 0 0 .468.106c.19 0 .35-.04.48-.12a.776.776 0 0 0 .301-.363c.069-.158.103-.354.103-.586v-5.07ZM11.953 30h-1.648l2.51-7.273h1.982L17.306 30h-1.648l-1.822-5.61h-.057L11.954 30Zm-.103-2.859h3.892v1.2h-3.892v-1.2Zm6.736-4.414 1.758 5.526h.067l1.761-5.526h1.705L21.37 30h-1.982l-2.51-7.273h1.708ZM25.04 30h-1.648l2.51-7.273h1.982L30.392 30h-1.648l-1.822-5.61h-.057L25.04 30Zm-.103-2.859h3.892v1.2h-3.892v-1.2Z" fill="#fff"/></svg>