<svg width="40" height="40" fill="none" xmlns="http://www.w3.org/2000/svg"><path d="M7.75 4A3.25 3.25 0 0 1 11 .75h16c.121 0 .238.048.323.134l10.793 10.793a.457.457 0 0 1 .134.323v24A3.25 3.25 0 0 1 35 39.25H11A3.25 3.25 0 0 1 7.75 36V4Z" stroke="#D0D5DD" stroke-width="1.5"/><path d="M27 .5V8a4 4 0 0 0 4 4h7.5" stroke="#D0D5DD" stroke-width="1.5"/><rect x="1" y="18" width="19" height="16" rx="2" fill="#444CE7"/><path d="M7.916 22.727h1.52v5.071c0 .469-.105.876-.316 1.222a2.089 2.089 0 0 1-.87.799c-.372.187-.804.28-1.296.28-.438 0-.836-.076-1.193-.23a1.907 1.907 0 0 1-.846-.71c-.208-.32-.31-.721-.309-1.204h1.531c.005.191.044.356.117.493a.8.8 0 0 0 .31.313.979.979 0 0 0 .468.106c.19 0 .35-.04.48-.12a.776.776 0 0 0 .301-.363c.069-.158.103-.354.103-.586v-5.07Zm6.737 2.092a.898.898 0 0 0-.366-.668c-.216-.158-.508-.238-.877-.238-.251 0-.463.036-.636.107a.894.894 0 0 0-.398.288.693.693 0 0 0-.135.419.599.599 0 0 0 .082.34.853.853 0 0 0 .252.253c.107.068.23.129.37.18.14.05.288.093.447.129l.653.156c.318.07.609.166.874.284.265.118.495.264.689.437.194.172.344.376.45.61.11.235.165.504.168.807-.003.445-.116.83-.341 1.157-.223.325-.545.577-.966.757-.42.177-.925.266-1.516.266-.588 0-1.099-.09-1.535-.27a2.247 2.247 0 0 1-1.015-.799c-.242-.355-.368-.794-.38-1.317h1.488c.016.244.086.447.21.61.125.161.292.283.5.366.21.08.449.12.714.12.26 0 .486-.037.678-.113a1.04 1.04 0 0 0 .451-.316.73.73 0 0 0 .16-.465c0-.163-.049-.3-.146-.412a1.103 1.103 0 0 0-.419-.284 4.271 4.271 0 0 0-.67-.213l-.793-.199c-.613-.15-1.097-.382-1.452-.7-.355-.317-.532-.744-.53-1.282-.002-.44.116-.825.352-1.154.24-.329.567-.585.984-.77.417-.185.89-.277 1.42-.277.54 0 1.011.092 1.414.277.405.184.72.441.944.77.225.33.341.71.348 1.144h-1.473Z" fill="#fff"/></svg>