<svg width="40" height="40" fill="none" xmlns="http://www.w3.org/2000/svg"><path d="M7.75 4A3.25 3.25 0 0 1 11 .75h16c.121 0 .238.048.323.134l10.793 10.793a.457.457 0 0 1 .134.323v24A3.25 3.25 0 0 1 35 39.25H11A3.25 3.25 0 0 1 7.75 36V4Z" stroke="#D0D5DD" stroke-width="1.5"/><path d="M27 .5V8a4 4 0 0 0 4 4h7.5" stroke="#D0D5DD" stroke-width="1.5"/><rect x="1" y="18" width="34" height="16" rx="2" fill="#444CE7"/><path d="M7.828 22.727h1.52v5.071c0 .469-.105.876-.316 1.222a2.089 2.089 0 0 1-.87.799c-.372.187-.804.28-1.296.28-.438 0-.836-.076-1.193-.23a1.907 1.907 0 0 1-.846-.71c-.208-.32-.31-.721-.308-1.204h1.53c.005.191.044.356.117.493a.8.8 0 0 0 .31.313.979.979 0 0 0 .468.106c.19 0 .35-.04.48-.12a.776.776 0 0 0 .301-.363c.069-.158.103-.354.103-.586v-5.07Zm6.737 2.092a.899.899 0 0 0-.366-.668c-.216-.158-.508-.238-.877-.238-.251 0-.463.036-.636.107a.894.894 0 0 0-.398.288.693.693 0 0 0-.135.419.599.599 0 0 0 .082.34.853.853 0 0 0 .252.253c.107.068.23.129.37.18.14.05.288.093.447.129l.653.156c.318.07.609.166.874.284.265.118.495.264.689.437.194.172.344.376.451.61.109.235.165.504.167.807-.003.445-.116.83-.341 1.157-.223.325-.545.577-.966.757-.419.177-.924.266-1.516.266-.587 0-1.099-.09-1.534-.27a2.247 2.247 0 0 1-1.016-.799c-.242-.355-.368-.794-.38-1.317h1.488c.017.244.086.447.21.61.125.161.292.283.5.366.21.08.449.12.714.12.26 0 .486-.037.678-.113a1.04 1.04 0 0 0 .451-.316.73.73 0 0 0 .16-.465c0-.163-.049-.3-.146-.412a1.103 1.103 0 0 0-.419-.284 4.271 4.271 0 0 0-.67-.213l-.793-.199c-.613-.15-1.097-.382-1.452-.7-.355-.317-.532-.744-.53-1.282-.002-.44.116-.825.352-1.154.24-.329.567-.585.984-.77.417-.185.89-.277 1.42-.277.54 0 1.011.092 1.414.277.405.184.72.441.944.77.225.33.341.71.348 1.144h-1.473Zm9.29 1.545c0 .793-.15 1.467-.45 2.024a3.127 3.127 0 0 1-1.222 1.275 3.452 3.452 0 0 1-1.733.436 3.443 3.443 0 0 1-1.74-.44 3.135 3.135 0 0 1-1.218-1.275c-.299-.556-.448-1.23-.448-2.02 0-.794.15-1.468.448-2.024a3.11 3.11 0 0 1 1.218-1.272 3.443 3.443 0 0 1 1.74-.44c.641 0 1.22.147 1.733.44.516.291.923.715 1.221 1.271.301.557.451 1.232.451 2.025Zm-1.559 0c0-.514-.076-.947-.23-1.3-.152-.353-.366-.62-.643-.803a1.73 1.73 0 0 0-.973-.273 1.73 1.73 0 0 0-.973.273c-.277.183-.493.45-.646.803-.152.353-.228.786-.228 1.3 0 .513.076.947.227 1.3.154.352.37.62.647.802.277.182.601.273.973.273s.696-.09.973-.273c.277-.182.491-.45.643-.803.154-.352.23-.786.23-1.3Zm8.782-3.637V30h-1.329l-3.164-4.577h-.053V30h-1.538v-7.273h1.35l3.139 4.574h.064v-4.574h1.53Z" fill="#fff"/></svg>