<svg width="15" height="15" fill="none" xmlns="http://www.w3.org/2000/svg"><g clip-path="url(#a)"><path d="M12.331 3.324c0 .933-2.268 1.69-5.066 1.69s-5.066-.757-5.066-1.69m10.132 0c0-.932-2.268-1.688-5.066-1.688s-5.066.756-5.066 1.688m10.132 0v7.881c0 .935-2.252 1.689-5.066 1.689-2.815 0-5.066-.754-5.066-1.689v-7.88m10.132 3.94c0 .934-2.252 1.689-5.066 1.689-2.815 0-5.066-.755-5.066-1.69" stroke="currentColor" stroke-width="1.689" stroke-linecap="round" stroke-linejoin="round"/></g><defs><clipPath id="a"><path fill="#fff" transform="translate(.51 .51)" d="M0 0h13.51v13.51H0z"/></clipPath></defs></svg>