<svg width="40" height="40" fill="none" xmlns="http://www.w3.org/2000/svg"><path d="M7.75 4A3.25 3.25 0 0 1 11 .75h16c.121 0 .238.048.323.134l10.793 10.793a.457.457 0 0 1 .134.323v24A3.25 3.25 0 0 1 35 39.25H11A3.25 3.25 0 0 1 7.75 36V4Z" stroke="#D0D5DD" stroke-width="1.5"/><path d="M27 .5V8a4 4 0 0 0 4 4h7.5" stroke="#D0D5DD" stroke-width="1.5"/><rect x="1" y="18" width="30" height="16" rx="2" fill="#155EEF"/><path d="M4.87 22.727h1.896l2.003 4.887h.085l2.003-4.887h1.896V30H11.26v-4.734h-.06L9.32 29.965H8.303l-1.882-4.716h-.06V30H4.869v-7.273ZM14.02 30v-7.273h1.537v3.207h.096l2.617-3.207h1.843l-2.698 3.257L20.145 30h-1.839l-1.992-2.99-.757.923V30H14.02Zm8.208-7.273 1.758 5.526h.067l1.762-5.526h1.704L25.012 30h-1.981l-2.51-7.273h1.707Z" fill="#fff"/></svg>