<svg width="20" height="20" fill="none" xmlns="http://www.w3.org/2000/svg"><g clip-path="url(#a)"><path d="M2.845 8.954c-.497-.193-.745-.29-.817-.429a.417.417 0 0 1 0-.384c.072-.14.32-.236.816-.43L16.917 2.22c.448-.174.671-.262.814-.214a.416.416 0 0 1 .264.263c.047.143-.04.367-.215.815l-5.492 14.073c-.193.496-.29.744-.429.816a.416.416 0 0 1-.385 0c-.139-.073-.235-.32-.428-.817l-2.19-5.632a.895.895 0 0 0-.09-.193.416.416 0 0 0-.096-.097.9.9 0 0 0-.194-.09l-5.631-2.19Z" stroke="#475467" stroke-width="2" stroke-linecap="round" stroke-linejoin="round"/></g><defs><clipPath id="a"><path fill="#fff" d="M0 0h20v20H0z"/></clipPath></defs></svg>