<svg width="40" height="40" fill="none" xmlns="http://www.w3.org/2000/svg"><path d="M7.75 4A3.25 3.25 0 0 1 11 .75h16c.121 0 .238.048.323.134l10.793 10.793a.457.457 0 0 1 .134.323v24A3.25 3.25 0 0 1 35 39.25H11A3.25 3.25 0 0 1 7.75 36V4Z" stroke="#D0D5DD" stroke-width="1.5"/><path d="M27 .5V8a4 4 0 0 0 4 4h7.5" stroke="#D0D5DD" stroke-width="1.5"/><rect x="1" y="18" width="27" height="16" rx="2" fill="#155EEF"/><path d="M4.98 30v-7.273h2.87c.552 0 1.022.106 1.41.316.388.209.684.499.888.87.206.37.309.796.309 1.279 0 .483-.105.909-.313 1.278-.208.37-.51.657-.905.863-.393.206-.87.309-1.428.309H5.982V26.41h1.58c.296 0 .54-.051.732-.153.194-.104.338-.247.433-.43.097-.184.146-.396.146-.635 0-.242-.049-.452-.146-.632a.972.972 0 0 0-.433-.423c-.194-.102-.44-.153-.739-.153H6.518V30H4.981Zm10.42-5.181a.899.899 0 0 0-.365-.668c-.216-.158-.508-.238-.877-.238-.251 0-.463.036-.636.107a.894.894 0 0 0-.398.288.692.692 0 0 0-.135.419.599.599 0 0 0 .082.34.854.854 0 0 0 .252.253c.107.068.23.129.37.18.14.05.288.093.447.129l.653.156c.318.07.609.166.874.284.265.118.495.264.689.437.194.172.344.376.45.61.11.235.165.504.168.807-.003.445-.116.83-.341 1.157-.223.325-.545.577-.966.757-.419.177-.925.266-1.516.266-.588 0-1.099-.09-1.534-.27a2.247 2.247 0 0 1-1.016-.799c-.242-.355-.368-.794-.38-1.317h1.488c.017.244.086.447.21.61.125.161.292.283.5.366.21.08.449.12.714.12.26 0 .486-.037.678-.113a1.04 1.04 0 0 0 .451-.316.73.73 0 0 0 .16-.465c0-.163-.049-.3-.146-.412a1.103 1.103 0 0 0-.419-.284 4.273 4.273 0 0 0-.67-.213l-.793-.199c-.613-.15-1.097-.382-1.452-.7-.355-.317-.532-.744-.53-1.282-.002-.44.116-.825.352-1.154.24-.329.567-.585.984-.77.417-.185.89-.277 1.42-.277.54 0 1.011.092 1.414.277.405.184.72.441.944.77.225.33.341.71.348 1.144h-1.473ZM20.587 30h-2.578v-7.273h2.6c.731 0 1.36.146 1.889.437.528.289.934.704 1.218 1.246.286.543.43 1.191.43 1.947 0 .757-.144 1.408-.43 1.953a2.953 2.953 0 0 1-1.225 1.253c-.53.291-1.165.437-1.904.437Zm-1.04-1.317h.976c.455 0 .837-.081 1.147-.242.313-.163.547-.415.703-.756.159-.344.238-.786.238-1.328 0-.538-.079-.977-.238-1.318a1.54 1.54 0 0 0-.7-.753c-.31-.16-.692-.241-1.146-.241h-.98v4.637Z" fill="#fff"/></svg>