<svg width="40" height="40" fill="none" xmlns="http://www.w3.org/2000/svg"><path d="M7.75 4A3.25 3.25 0 0 1 11 .75h16c.121 0 .238.048.323.134l10.793 10.793a.457.457 0 0 1 .134.323v24A3.25 3.25 0 0 1 35 39.25H11A3.25 3.25 0 0 1 7.75 36V4Z" stroke="#D0D5DD" stroke-width="1.5"/><path d="M27 .5V8a4 4 0 0 0 4 4h7.5" stroke="#D0D5DD" stroke-width="1.5"/><rect x="1" y="18" width="26" height="16" rx="2" fill="#444CE7"/><path d="M4.798 30v-7.273h2.87c.549 0 1.017.099 1.406.295.39.194.687.47.891.827.206.355.309.773.309 1.254 0 .483-.104.898-.313 1.246-.208.346-.51.611-.905.796-.393.184-.869.277-1.428.277h-1.92v-1.236H7.38c.293 0 .537-.04.731-.12a.87.87 0 0 0 .434-.363c.097-.16.145-.36.145-.6a1.19 1.19 0 0 0-.145-.61.893.893 0 0 0-.437-.377c-.194-.088-.44-.132-.735-.132H6.336V30H4.798Zm3.928-3.31L10.533 30H8.836l-1.769-3.31h1.659Zm6.58-1.871a.899.899 0 0 0-.366-.668c-.215-.158-.508-.238-.877-.238-.25 0-.463.036-.636.107a.894.894 0 0 0-.397.288.692.692 0 0 0-.135.419.599.599 0 0 0 .081.34.853.853 0 0 0 .252.253c.107.068.23.129.37.18.14.05.289.093.447.129l.654.156c.317.07.608.166.873.284.265.118.495.264.69.437.193.172.344.376.45.61.11.235.165.504.167.807-.002.445-.116.83-.34 1.157-.223.325-.545.577-.967.757-.419.177-.924.266-1.516.266-.587 0-1.099-.09-1.534-.27a2.247 2.247 0 0 1-1.016-.799c-.241-.355-.368-.794-.38-1.317h1.488c.017.244.087.447.21.61.125.161.292.283.5.366.211.08.449.12.714.12.26 0 .487-.037.678-.113a1.04 1.04 0 0 0 .451-.316.73.73 0 0 0 .16-.465c0-.163-.048-.3-.145-.412a1.103 1.103 0 0 0-.42-.284 4.271 4.271 0 0 0-.67-.213l-.793-.199c-.613-.15-1.097-.382-1.452-.7-.355-.317-.531-.744-.529-1.282-.002-.44.115-.825.352-1.154.239-.329.567-.585.983-.77.417-.185.89-.277 1.42-.277.54 0 1.012.092 1.414.277.405.184.72.441.945.77.225.33.34.71.348 1.144h-1.474Zm6.553 0a.899.899 0 0 0-.366-.668c-.215-.158-.508-.238-.877-.238-.251 0-.463.036-.636.107a.894.894 0 0 0-.398.288.692.692 0 0 0-.135.419.599.599 0 0 0 .082.34.854.854 0 0 0 .252.253c.107.068.23.129.37.18.14.05.288.093.447.129l.653.156c.318.07.609.166.874.284.265.118.495.264.689.437.194.172.344.376.45.61.11.235.166.504.168.807-.002.445-.116.83-.341 1.157-.223.325-.545.577-.966.757-.419.177-.924.266-1.516.266-.588 0-1.099-.09-1.534-.27a2.247 2.247 0 0 1-1.016-.799c-.242-.355-.368-.794-.38-1.317h1.488c.016.244.086.447.21.61.125.161.292.283.5.366.21.08.449.12.714.12.26 0 .486-.037.678-.113a1.04 1.04 0 0 0 .451-.316.73.73 0 0 0 .16-.465c0-.163-.049-.3-.146-.412a1.103 1.103 0 0 0-.419-.284 4.273 4.273 0 0 0-.67-.213l-.793-.199c-.613-.15-1.097-.382-1.452-.7-.355-.317-.532-.744-.53-1.282-.002-.44.116-.825.352-1.154.24-.329.567-.585.984-.77.417-.185.89-.277 1.42-.277.54 0 1.011.092 1.414.277.405.184.72.441.944.77.225.33.341.71.348 1.144H21.86Z" fill="#fff"/></svg>