<svg width="32" height="32" fill="none" xmlns="http://www.w3.org/2000/svg"><g clip-path="url(#a)"><path d="M0 16C0 7.163 7.163 0 16 0s16 7.163 16 16-7.163 16-16 16S0 24.837 0 16Z" fill="#F9F5FF"/><path d="M1 16C1 7.716 7.716 1 16 1c8.284 0 15 6.716 15 15 0 8.284-6.716 15-15 15-8.284 0-15-6.716-15-15Z" fill="#7F56D9"/><path d="M1 16C1 7.716 7.716 1 16 1c8.284 0 15 6.716 15 15 0 8.284-6.716 15-15 15-8.284 0-15-6.716-15-15Z" stroke="#7F56D9" stroke-width="2"/><path fill-rule="evenodd" clip-rule="evenodd" d="m22.795 9.853-9.547 9.214-2.533-2.707c-.467-.44-1.2-.467-1.733-.093-.52.386-.667 1.066-.347 1.613l3 4.88c.293.453.8.733 1.373.733a1.63 1.63 0 0 0 1.36-.733c.48-.627 9.64-11.547 9.64-11.547 1.2-1.226-.253-2.306-1.213-1.373v.013Z" fill="#fff"/></g><defs><clipPath id="a"><path d="M0 16C0 7.163 7.163 0 16 0s16 7.163 16 16-7.163 16-16 16S0 24.837 0 16Z" fill="#fff"/></clipPath></defs></svg>