<svg width="40" height="40" fill="none" xmlns="http://www.w3.org/2000/svg"><path d="M7.75 4A3.25 3.25 0 0 1 11 .75h16c.121 0 .238.048.323.134l10.793 10.793a.457.457 0 0 1 .134.323v24A3.25 3.25 0 0 1 35 39.25H11A3.25 3.25 0 0 1 7.75 36V4Z" stroke="#D0D5DD" stroke-width="1.5"/><path d="M27 .5V8a4 4 0 0 0 4 4h7.5" stroke="#D0D5DD" stroke-width="1.5"/><rect x="1" y="18" width="30" height="16" rx="2" fill="#DD2590"/><path d="m6.428 30-2.08-7.273h1.68L7.23 27.78h.06l1.328-5.053h1.439l1.324 5.064h.064l1.204-5.064h1.68L12.249 30H10.75l-1.385-4.755h-.057L7.927 30H6.428Zm9.246 0h-1.648l2.51-7.273h1.982L21.025 30h-1.647l-1.822-5.61h-.057L15.674 30Zm-.103-2.859h3.892v1.2H15.57v-1.2Zm6.735-4.414 1.758 5.526h.068l1.761-5.526h1.705L25.09 30H23.11l-2.51-7.273h1.707Z" fill="#fff"/></svg>