<svg data-name="图层 1" xmlns="http://www.w3.org/2000/svg" xmlns:xlink="http://www.w3.org/1999/xlink" viewBox="0 0 283.46 283.46"><defs><linearGradient id="a" data-name="未命名的渐变 5" x1="27.03" y1="287.05" x2="253.15" y2="1.14" gradientUnits="userSpaceOnUse"><stop offset="0" stop-color="#e9a85e"/><stop offset="1" stop-color="#f52b76"/></linearGradient><linearGradient id="b" data-name="未命名的渐变 5" x1="25.96" y1="286.21" x2="252.09" y2=".3" xlink:href="#a"/><linearGradient id="c" data-name="未命名的渐变 9" x1="-474.33" y1="476.58" x2="-160.37" y2="476.58" gradientTransform="rotate(33.75 459.64 1064.864)" gradientUnits="userSpaceOnUse"><stop offset="0" stop-color="#6a0cf5"/><stop offset="1" stop-color="#ab66f3"/></linearGradient></defs><path d="M96.16 145.42c7.71 8.57 16.96 16.66 27.5 23.7 8.96 5.99 18.29 10.89 27.66 14.64a209.64 209.64 0 0 0 43.09-57.84L257.92 0 147.08 87.19a209.703 209.703 0 0 0-50.92 58.23Z" style="fill:url(#a)"/><path d="M87.08 223.86a297.38 297.38 0 0 1-22.59-16.7L26 283.47l69.17-54.4c-2.71-1.69-5.41-3.41-8.09-5.2Z" style="fill:url(#b)"/><path d="M229.81 101.27c20.81 27.65 26.93 58.36 12.79 79.51-20.63 30.88-76.59 29.69-124.98-2.64C69.23 145.8 46.73 94.56 67.37 63.68c14.14-21.15 44.86-27.25 78.36-18.6C87.76 20.46 32.59 22.86 11.22 54.85c-26.86 40.19 9.8 111.82 81.88 159.99 72.08 48.17 152.29 54.64 179.15 14.45 21.38-31.99 2.49-83.88-42.44-128.02Z" style="fill:url(#c)"/></svg>