<svg width="40" height="40" fill="none" xmlns="http://www.w3.org/2000/svg"><path d="M7.75 4A3.25 3.25 0 0 1 11 .75h16c.121 0 .238.048.323.134l10.793 10.793a.457.457 0 0 1 .134.323v24A3.25 3.25 0 0 1 35 39.25H11A3.25 3.25 0 0 1 7.75 36V4Z" stroke="#D0D5DD" stroke-width="1.5"/><path d="M27 .5V8a4 4 0 0 0 4 4h7.5" stroke="#D0D5DD" stroke-width="1.5"/><rect x="1" y="18" width="17" height="16" rx="2" fill="#E04F16"/><path d="M6.244 30H4.596l2.511-7.273h1.982L11.596 30H9.948l-1.822-5.61H8.07L6.244 30Zm-.103-2.859h3.892v1.2H6.141v-1.2Zm7.868-4.414V30H12.47v-7.273h1.538Z" fill="#fff"/></svg>