<svg width="40" height="40" fill="none" xmlns="http://www.w3.org/2000/svg"><path d="M7.75 4A3.25 3.25 0 0 1 11 .75h16c.121 0 .238.048.323.134l10.793 10.793a.457.457 0 0 1 .134.323v24A3.25 3.25 0 0 1 35 39.25H11A3.25 3.25 0 0 1 7.75 36V4Z" stroke="#D0D5DD" stroke-width="1.5"/><path d="M27 .5V8a4 4 0 0 0 4 4h7.5" stroke="#D0D5DD" stroke-width="1.5"/><rect x="1" y="18" width="23" height="16" rx="2" fill="#155EEF"/><path d="M5.958 30H4.31l2.51-7.273h1.982L11.31 30H9.662L7.84 24.39h-.057L5.958 30Zm-.103-2.859h3.892v1.2H5.855v-1.2Zm6.736-4.414 1.757 5.526h.068l1.761-5.526h1.705L15.375 30h-1.982l-2.51-7.273h1.708Zm7.704 0V30h-1.538v-7.273h1.538Z" fill="#fff"/></svg>