<svg width="352" height="256" fill="none" xmlns="http://www.w3.org/2000/svg"><g clip-path="url(#a)"><path d="M324.208 123.616H39.856c-3.811 0-6.912-3.457-6.912-7.706V7.705c0-4.248 3.1-7.705 6.912-7.705h284.352c3.812 0 6.912 3.457 6.912 7.705V115.91c0 4.249-3.1 7.706-6.912 7.706ZM39.856.919c-3.357 0-6.088 3.044-6.088 6.786V115.91c0 3.743 2.731 6.787 6.088 6.787h284.352c3.357 0 6.088-3.044 6.088-6.787V7.705c0-3.742-2.731-6.786-6.088-6.786H39.856Z" fill="#3F3D56"/><path d="M351.333 252.881H.667v.773h350.666v-.773ZM351.333 213.38H.667v.773h350.666v-.773Z" fill="#E6E6E6"/><path d="M160.475 127.595c.252 3.528 2.088 6.242 4.102 6.063 2.014-.179 3.442-3.183 3.19-6.712a9.607 9.607 0 0 0-1.124-3.991l-1.236-14.931-6.274.796 1.885 14.635a9.791 9.791 0 0 0-.543 4.14Z" fill="#FFB6B6"/><path d="M152.981 57.935s5.864-3.46 8.838 1.711c2.973 5.171 5.026 61.099 5.026 61.099l-8.242.981-1.563-39.41-4.059-24.38Z" fill="#E6E6E6"/><path d="m140.81 210.462 4.774-.001 2.271-20.529-7.046.001.001 20.529Z" fill="#FFB6B6"/><path d="M157.168 210.341c.148.279.227 1.18.227 1.505 0 .997-.726 1.806-1.621 1.806h-14.786c-.61 0-1.105-.552-1.105-1.232v-.687s-.732-2.062.774-4.604c0 0 1.872 1.99 4.669-1.127l.824-1.666 5.97 4.867 3.31.454c.723.1 1.365-.015 1.738.684Z" fill="#2F2E41"/><path d="m168.439 209.581 4.626-1.318-2.357-20.517-6.828 1.945 4.559 19.89Z" fill="#FFB6B6"/><path d="M184.262 204.95c.206.23.482 1.081.554 1.395.221.967-.302 1.951-1.169 2.198l-14.326 4.079c-.592.169-1.194-.229-1.345-.889l-.153-.665s-1.166-1.796-.272-4.675c0 0 2.256 1.413 4.273-2.38l.43-1.841 6.865 3.069 3.307-.473c.723-.104 1.32-.392 1.836.182Z" fill="#2F2E41"/><path d="m136.859 53.522-.226-1.831 2.69-7.325 7.393-.916 1.596 10.487-11.453-.415Z" fill="#FFB6B6"/><path opacity=".1" d="m136.859 53.522-.226-1.831 2.69-7.325 7.393-.916 1.596 10.487-11.453-.415Z" fill="#000"/><path d="m128.234 105.256-3.285 10.073 2.464 5.493 12.321 79.662h8.192l-1.62-70.505 18.892 70.505h8.108l-6.52-47.614-4.874-43.951-2.956-2.036-14.293-8.952-16.429 7.325Z" fill="#2F2E41"/><path d="m149.18 112.124-4.928.915-6.571-17.397h14.785l-3.286 16.482Z" fill="#E6E6E6"/><path d="m159.038 107.546-9.857 4.578-3.286-8.241-1.643 9.157-17.25-6.19 2.465-11.208-2.465-36.626 8.699-6.464 1.158-.861 10.679.916.936.567 6.457 4.01 1.642 30.217 2.465 20.145Z" fill="#2F2E41"/><path d="m148.474 53.174-4.633 21.866-8.14-22.488 1.158-.861 10.679.916.936.567Z" fill="#E6E6E6"/><path d="m140.556 51.69-1.643 3.155 1.643 1.051-.821 19.2 3.285 4.98 3.286-7.359-2.464-16.82.821-4.206h-4.107Z" fill="#2F2E41"/><path d="M143.02 49.86c4.31 0 7.804-3.895 7.804-8.7 0-4.803-3.494-8.698-7.804-8.698-4.309 0-7.803 3.895-7.803 8.699s3.494 8.698 7.803 8.698Z" fill="#FFB6B6"/><path d="m138.033 41.924 1.686.82.736-4.922s2.943-1.64 5.151-.82c2.207.82 5.887 0 5.887 0s0-8.202-5.151-8.202-10.302.82-10.302 3.28c0 2.462-2.208 4.922-2.208 4.922s-2.943 4.922 0 8.203c2.944 3.281 4.415 3.281 4.415 3.281l-.214-6.562Z" fill="#2F2E41"/><path d="M122.892 127.338c-.086 3.537 1.482 6.454 3.502 6.514 2.019.061 3.725-2.758 3.81-6.297a9.727 9.727 0 0 0-.737-4.101l.192-14.993-6.313.049.48 14.776a9.66 9.66 0 0 0-.934 4.052Z" fill="#FFB6B6"/><path d="M130.703 57.167s-5.339-1.83-7.804 3.663c-2.464 5.494.822 61.349.822 61.349h8.288l-2.199-39.373.893-25.639Z" fill="#E6E6E6"/><path d="m335.52 161.225-19.911-6.795a3.249 3.249 0 0 0-1.361-.161l-100.912 9.573c-1.438.137-1.8 2.3-.502 3.005l3.233 1.755h-.087v84.033h3.046V170.21l10.131 5.501c.775.421 1.64.593 2.498.496l1.078-.121v76.549h3.045v-76.892l78.05-8.788v85.68h3.046v-86.023l12.945-1.458v87.481h3.046v-87.824l2.362-.266c1.657-.186 1.886-2.777.293-3.32Z" fill="#3F3D56"/><path d="M242.632 163.509c1.903 0 30.078-3.819 30.078-3.819l4.188 6.366-29.317 6.366-4.949-8.913Z" fill="#fff"/><path d="m273.553 249.372-4.895-.01-2.296-21.051 7.224.014-.033 21.047Z" fill="#A0616A"/><path d="M256.783 249.216c-.153.286-.235 1.209-.236 1.542-.001 1.023.741 1.853 1.659 1.855l15.159.029c.626.001 1.134-.564 1.135-1.261l.001-.704s.753-2.113-.787-4.722c0 0-1.922 2.037-4.784-1.165l-.843-1.709-6.128 4.978-3.393.459c-.743.101-1.401-.018-1.783.698Z" fill="#2F2E41"/><path d="m299.824 239.583-3.862 3.247-13.074-15.06 5.7-4.792 11.236 16.605Z" fill="#A0616A"/><path d="M286.527 250.611c.033.327.462 1.109.64 1.372.546.807 1.576.967 2.299.359l11.96-10.057c.494-.416.592-1.199.22-1.749l-.376-.555s-.537-2.166-3.147-3.198c0 0-.424 2.883-4.393 2.264l-1.579-.786-2.164 7.997-2.428 2.618c-.531.573-1.113.917-1.032 1.735Z" fill="#2F2E41"/><path d="M289.594 130.786c0 5.032-3.659 9.111-8.173 9.111s-8.173-4.079-8.173-9.111c0-5.031 3.659-9.11 8.173-9.11s8.173 4.079 8.173 9.11Z" fill="#A0616A"/><path d="M288.824 183.317s-30.092-1.899-31.796 1.899c-1.703 3.798 9.209 55.96 9.209 55.96l9.735-2.274-4.749-36.597s25.111 7.413 28.518-1.448c3.407-8.86 2.426-12.16 2.426-12.16l-13.343-5.38Z" fill="#2F2E41"/><path d="M296.535 176.943s-29.472 7.043-30.213 11.207c-.742 4.165 22.16 51.251 22.16 51.251l8.849-5.064-13.265-33.893s25.976-.255 27.159-9.805c1.183-9.55-.546-12.443-.546-12.443l-14.144-1.253Z" fill="#2F2E41"/><path d="M299.896 141.228h-14.158l-9.689 17.722s-2.271 11.452 0 12.688c2.272 1.236 2.272 14.527 2.272 14.527l23.847 2.532s3.406-39.874 2.271-43.672c-1.136-3.797-4.543-3.797-4.543-3.797Z" fill="#6C63FF"/><path d="m277.469 152.937-1.42 18.701-15.966-7.553-3.81-2.137a7.912 7.912 0 0 0-2.825-2.536c-2.759-1.499-5.689-1.128-6.545.829-.856 1.957.687 4.758 3.446 6.257a7.04 7.04 0 0 0 3.534.916l11.149 7.059.013-.027.05.098 17.484 8.14 4.022-24.55-9.132-5.197Z" fill="#A0616A"/><path d="M275.765 132.05s-8.516 1.266-5.11-6.962c0 0-.519-4.46 2.012-4.762 2.531-.301 5.937-5.364 5.937-5.364s7.811-4.431 11.855 0c4.043 4.43 15.967 30.38 15.967 30.38l-7.949 9.494s-4.779-14.004-10.339-12.382c-5.559 1.622-10.669 6.459-10.669 6.459s-5.642-3.148-3.105-5.891c2.537-2.744 1.401-10.972 1.401-10.972Z" fill="#2F2E41"/><path d="M287.121 145.975s-3.975-5.697-6.814-1.266c-2.839 4.43-5.11 10.127-5.11 10.127l11.356 4.43.568-13.291Z" fill="#6C63FF"/><path d="m330.237 251.376-13.193-46.745.002-.001h.03l-.053-.076-.001-.002-.94-3.329v-.001c1.432-1.375 2.407-3.34 2.601-5.602l-6.031-36.974c.415-4.856-2.924-9.1-7.299-9.274l-13.607-.038c-3.868-.153-7.219 2.962-7.782 7.232l-.301 2.266-4.169 31.615a9.3 9.3 0 0 0 .149 3.306l-3.001.437-.91.136-3.597.522-.012.004-.449.064h-.487v13.581h.03v43.408c0 .281.206.51.457.51.255 0 .461-.229.461-.51v-43.408h5.337l5.327 43.357c.034.255.228.442.457.442.019 0 .042 0 .061-.004.251-.039.426-.297.392-.578l-5.308-43.217h25.612c2.543 0 4.9-.9 6.819-2.44l10.154 45.718c.053.231.24.385.444.385a.408.408 0 0 0 .114-.016c.245-.069.394-.348.331-.621l-10.253-46.16c.137-.127.273-.262.402-.402l4.076-.267 13.262 46.989a.467.467 0 0 0 .438.357.415.415 0 0 0 .137-.023c.242-.085.376-.372.3-.641Zm-15.027-49.428c.035-.021.065-.047.096-.068l.098.347-.194-.279Z" fill="#E6E6E6"/><path d="m71.36 172.141 8.879-6.294 3.61 2.427-12.49 15.997v-12.13Z" fill="#FFB6B6"/><path d="M59.217 147.778s-5.897 1.547-3.122 10.441c2.776 8.895 11.795 27.457 14.57 26.297 2.776-1.16 3.123-12.762 3.123-12.762s-.347.387-1.734-1.16c-1.388-1.547-1.388-.84-1.388-2.547 0-1.707-1.135-2.972-1.135-2.972l-1.294-2.989s0-13.921-5.203-14.695c-5.204-.773-3.817.387-3.817.387Z" fill="#E6E6E6"/><path d="M86.771 167.858c2.304-2.567 3.017-5.934 1.595-7.52-1.423-1.586-4.443-.79-6.746 1.777-2.303 2.568-3.017 5.935-1.595 7.52 1.423 1.586 4.443.79 6.746-1.777Z" fill="#FFB6B6"/><path d="m36.246 199.018 6.059 11.179 35.308-2.329-9.402-13.507-31.965 4.657Z" fill="#E6E6E6"/><path d="M46.796 251.303c-.206 0-.385-.17-.413-.403l-10.551-85.896c-.031-.255.129-.49.357-.525.229-.036.44.144.471.399l10.55 85.896c.032.254-.128.489-.357.524a.374.374 0 0 1-.057.005Z" fill="#E6E6E6"/><path d="M36.246 251.412c-.23 0-.418-.209-.418-.466v-85.989c0-.257.187-.465.418-.465.23 0 .418.208.418.465v85.989c0 .257-.187.466-.418.466ZM89.208 251.07c-.178 0-.342-.127-.398-.326l-24.967-88.458c-.07-.245.053-.507.273-.584.22-.077.455.059.524.304l24.967 88.458c.069.246-.053.507-.274.584a.37.37 0 0 1-.125.022ZM81.582 251.179c-.186 0-.356-.14-.405-.351l-17.34-78.07c-.057-.249.078-.503.302-.566.224-.063.45.087.508.336l17.34 78.07c.057.25-.078.503-.302.567a.412.412 0 0 1-.103.014Z" fill="#E6E6E6"/><path d="m36.246 166.327 28.936-.496 5.328 33.886H36.664l-.418-33.39Z" fill="#E6E6E6"/><path d="m80.713 216.154-7.293 14.312 8.468 2.078 3.53-10.179-4.705-6.211Z" fill="#FFB6B6"/><path d="M76.04 227.764s-.284-2.334-1.95-1.593c-1.665.74-6.473 3.493-6.473 3.493s12.54 22.713 14.92 21.655c2.38-1.058-.47-7.478-.47-7.478l.63-11.349-6.657-4.728ZM48.462 188.384s-2.601 13.341 5.378 17.982 35.212-6.768 35.212-6.768l-12.489 20.86 8.673 3.89s19.774-29.004 18.387-33.644c-1.388-4.641-10.755-5.027-10.755-5.027l-21.162 1.16-5.55-1.934-17.694 3.481Z" fill="#2F2E41"/><path d="m69.925 222.506-11.464 10.372 7.208 5.37 6.611-8.049-2.355-7.693Z" fill="#FFB6B6"/><path d="M61.782 231.424s.498-2.289-1.295-2.275c-1.794.015-7.17.628-7.17.628S57.581 256.02 60.143 256c2.563-.02 2.005-7.156 2.005-7.156l4.29-10.316-4.657-7.104ZM48.95 183.557s-6.778 11.372-.86 18.931c5.917 7.559 35.007 7.98 35.007 7.98l-18.442 14.364 6.808 7.141s27.887-18.994 28.109-23.88c.222-4.885-8.376-9.045-8.376-9.045l-20.09-7.503-4.54-4.053-17.615-3.935ZM66.365 157.218s-6.592-2.707-9.714-2.707c-.298 0-.593.038-.888.108-1.998.472-3.837 2.386-4.718 3.43-.344.41-.541.685-.541.685s.02-.267.062-.735c.205-2.46.961-10.53 2.317-15.697.486-1.845 1.045-3.318 1.687-4.033 1.495-1.671 2.185-3.674 2.504-5.167.27-1.28.27-2.181.27-2.181l-2.528-1.214-.469-3.411c-.083.402-.468 1.187-1.762 2.691a2.125 2.125 0 0 1-.36.329c-1.867 1.307-5.673-.967-7.723-2.398.853-3.306 2.4-6.33 5.21-6.825 6.592-1.16 6.592-5.414 10.755-.774.344.383.69.751 1.038 1.106 1.332 2.839 1.817 6.644 1.99 9.289.126 1.853.095 3.14.095 3.14s1.734 11.602 4.51 13.922c2.775 2.321-1.735 10.442-1.735 10.442Z" fill="#2F2E41"/><path d="m53.529 138.655-4.688 7.665 10.585 3.163v-10.828H53.53Z" fill="#FFB6B6"/><path opacity=".1" d="m53.529 138.655-4.688 7.665 10.585 3.163v-10.828H53.53Z" fill="#000"/><path d="m60.084 146.038-10.06-4.641s-13.53 6.574-12.49 19.336c1.041 12.762 10.755 34.805 10.755 34.805l19.428-9.282-2.082-24.75-5.55-15.468Z" fill="#E6E6E6"/><path d="M55.771 142.077c4.902 0 8.876-4.43 8.876-9.894s-3.974-9.894-8.876-9.894c-4.902 0-8.876 4.43-8.876 9.894s3.974 9.894 8.876 9.894Z" fill="#FFB6B6"/><path d="M67.752 128.601c-1.734 1.933-3.122 3.867-3.122 3.867l-.694-3.094s-.16.131-.44.34c-1.1.836-4.053 2.935-6.422 3.388-1.055.201-1.991.073-2.602-.634-1.294-1.505-1.679-2.29-1.762-2.692l-.469 3.411-2.529 1.214s0 4.247 2.776 7.348c.135.151.267.336.395.553 1.325 2.228 2.276 7.68 2.88 12.317.534 4.122.79 7.595.79 7.595s-2.625-3.666-5.508-4.165a3.381 3.381 0 0 0-.48-.05c-.051-.008-.107-.008-.159-.008-3.122 0-9.713 2.707-9.713 2.707s-4.51-8.121-1.735-10.441c2.775-2.32 4.51-13.922 4.51-13.922s-.115-4.966 1.034-9.417c.853-3.306 2.4-6.33 5.21-6.825 6.592-1.16 6.592-5.414 10.755-.774.343.383.69.751 1.037 1.106 3.879 3.976 7.84 6.401 6.248 8.176Z" fill="#2F2E41"/><path d="M28.823 180.512h-3.296v72.573h3.296v-72.573ZM108.76 180.512h-3.296v72.573h3.296v-72.573Z" fill="#3F3D56"/><path d="M87.746 149.738H65.908v24.344h21.838v-24.344Z" fill="#6C63FF"/><path d="m53.32 175.622 8.879-6.295 3.61 2.427-12.49 15.998v-12.13Z" fill="#FFB6B6"/><path d="M41.177 151.258s-5.897 1.547-3.122 10.442c2.776 8.894 11.795 27.457 14.57 26.297 2.776-1.161 3.123-12.762 3.123-12.762s-.347.387-1.735-1.16c-1.387-1.547-1.387-.841-1.387-2.547 0-1.707-1.135-2.972-1.135-2.972l-1.294-2.989s0-13.922-5.204-14.695c-5.203-.774-3.816.386-3.816.386Z" fill="#E6E6E6"/><path d="M68.731 171.338c2.304-2.567 3.018-5.934 1.595-7.519-1.423-1.586-4.443-.79-6.746 1.777-2.303 2.567-3.017 5.934-1.595 7.52 1.423 1.586 4.443.79 6.746-1.778Z" fill="#FFB6B6"/><path d="M115.353 177.757H15.638v8.267h99.715v-8.267ZM216.664 111.615h-14.727c-1.167 0-2.114 1.054-2.114 2.356v6.77c0 1.302.947 2.356 2.114 2.356h14.727c1.167 0 2.113-1.054 2.113-2.356v-6.77c0-1.302-.946-2.356-2.113-2.356Z" fill="#3F3D56"/><path d="M247.567 118.385H232.84c-1.167 0-2.113 1.055-2.113 2.356 0 1.302.946 2.357 2.113 2.357h14.727c1.167 0 2.114-1.055 2.114-2.357 0-1.301-.947-2.356-2.114-2.356Z" fill="#6C63FF"/></g><defs><clipPath id="a"><path fill="#fff" transform="translate(.667)" d="M0 0h350.667v256H0z"/></clipPath></defs></svg>