<svg class="icon" viewBox="0 0 1024 1024" xmlns="http://www.w3.org/2000/svg" width="22" height="22"><path d="M222.635 272.299A382.4 382.4 0 0 0 138.667 512c0 212.117 171.904 384 384 384 90.666 0 174.016-31.424 239.701-83.968L222.635 272.299zm60.33-60.331L822.7 751.701A382.4 382.4 0 0 0 906.667 512c0-212.117-171.904-384-384-384-90.667 0-174.016 31.424-239.702 83.968zM53.333 512c0-259.221 210.091-469.333 469.334-469.333C781.888 42.667 992 252.757 992 512c0 259.221-210.09 469.333-469.333 469.333-259.222 0-469.334-210.09-469.334-469.333z" fill="#F04438"/></svg>