<svg width="40" height="40" fill="none" xmlns="http://www.w3.org/2000/svg"><path d="M7.75 4A3.25 3.25 0 0 1 11 .75h16c.121 0 .238.048.323.134l10.793 10.793a.457.457 0 0 1 .134.323v24A3.25 3.25 0 0 1 35 39.25H11A3.25 3.25 0 0 1 7.75 36V4Z" stroke="#D0D5DD" stroke-width="1.5"/><path d="M27 .5V8a4 4 0 0 0 4 4h7.5" stroke="#D0D5DD" stroke-width="1.5"/><rect x="1" y="18" width="31" height="16" rx="2" fill="#444CE7"/><path d="M7.694 30H5.115v-7.273h2.6c.731 0 1.361.146 1.89.437.527.289.933.704 1.217 1.246.287.543.43 1.191.43 1.947 0 .757-.143 1.408-.43 1.953a2.953 2.953 0 0 1-1.225 1.253c-.53.291-1.165.437-1.903.437Zm-1.04-1.317h.976c.454 0 .837-.081 1.147-.242.312-.163.547-.415.703-.756.158-.344.238-.786.238-1.328 0-.538-.08-.977-.238-1.318a1.54 1.54 0 0 0-.7-.753c-.31-.16-.692-.241-1.147-.241h-.98v4.637Zm5.737-5.956h1.896l2.003 4.887h.085l2.003-4.887h1.896V30h-1.491v-4.734h-.06l-1.883 4.699h-1.015l-1.882-4.716h-.06V30H12.39v-7.273Zm13.973 2.351a1.594 1.594 0 0 0-.21-.458 1.417 1.417 0 0 0-.77-.558 1.861 1.861 0 0 0-.544-.074c-.371 0-.698.092-.98.277-.28.185-.497.453-.653.806-.157.35-.235.779-.235 1.285 0 .507.077.938.231 1.293.154.355.372.626.654.813.281.185.614.277.998.277.348 0 .645-.061.89-.184.25-.126.439-.302.569-.53.133-.227.199-.495.199-.805l.312.046H24.95v-1.158h3.044v.916c0 .64-.135 1.189-.405 1.648a2.76 2.76 0 0 1-1.115 1.058c-.474.246-1.016.37-1.627.37-.681 0-1.28-.15-1.797-.452a3.13 3.13 0 0 1-1.207-1.289c-.286-.558-.43-1.221-.43-1.988 0-.59.086-1.115.256-1.577.173-.464.414-.857.725-1.179a3.13 3.13 0 0 1 1.083-.735 3.509 3.509 0 0 1 1.338-.252c.412 0 .796.06 1.151.18s.67.287.945.505c.277.218.503.477.678.778.175.298.288.627.337.987h-1.562Z" fill="#fff"/></svg>