<svg width="40" height="40" fill="none" xmlns="http://www.w3.org/2000/svg"><path d="M7.75 4A3.25 3.25 0 0 1 11 .75h16c.121 0 .238.048.323.134l10.793 10.793a.457.457 0 0 1 .134.323v24A3.25 3.25 0 0 1 35 39.25H11A3.25 3.25 0 0 1 7.75 36V4Z" stroke="#D0D5DD" stroke-width="1.5"/><path d="M27 .5V8a4 4 0 0 0 4 4h7.5" stroke="#D0D5DD" stroke-width="1.5"/><rect x="1" y="18" width="26" height="16" rx="2" fill="#7F56D9"/><path d="M5.057 30v-7.273h4.9v1.268H6.595v1.733h3.11v1.268h-3.11v1.736h3.377V30H5.057Zm6.123 0v-7.273h2.87c.55 0 1.02.106 1.41.316.387.209.683.499.887.87.206.37.309.796.309 1.279 0 .483-.104.909-.313 1.278-.208.37-.51.657-.905.863-.393.206-.87.309-1.428.309h-1.829V26.41h1.58c.297 0 .54-.051.732-.153.194-.104.339-.247.433-.43.098-.184.146-.396.146-.635 0-.242-.048-.452-.146-.632a.972.972 0 0 0-.433-.423c-.194-.102-.44-.153-.739-.153h-1.036V30H11.18Zm10.42-5.181a.899.899 0 0 0-.366-.668c-.215-.158-.508-.238-.877-.238-.251 0-.463.036-.636.107a.894.894 0 0 0-.397.288.692.692 0 0 0-.135.419.598.598 0 0 0 .081.34.853.853 0 0 0 .253.253c.106.068.23.129.369.18.14.05.289.093.447.129l.654.156c.317.07.608.166.873.284.265.118.495.264.69.437.193.172.344.376.45.61.109.235.165.504.167.807-.002.445-.116.83-.34 1.157-.223.325-.545.577-.967.757-.419.177-.924.266-1.516.266-.587 0-1.099-.09-1.534-.27a2.246 2.246 0 0 1-1.016-.799c-.241-.355-.368-.794-.38-1.317h1.488c.017.244.086.447.21.61.125.161.292.283.5.366.211.08.449.12.714.12.26 0 .487-.037.678-.113a1.04 1.04 0 0 0 .451-.316.73.73 0 0 0 .16-.465c0-.163-.048-.3-.145-.412a1.103 1.103 0 0 0-.42-.284 4.274 4.274 0 0 0-.67-.213l-.793-.199c-.613-.15-1.097-.382-1.452-.7-.355-.317-.531-.744-.53-1.282-.001-.44.116-.825.352-1.154.24-.329.567-.585.984-.77.417-.185.89-.277 1.42-.277.54 0 1.011.092 1.414.277.405.184.72.441.945.77.225.33.34.71.348 1.144H21.6Z" fill="#fff"/></svg>