<svg width="80" height="80" fill="none" xmlns="http://www.w3.org/2000/svg"><path fill-rule="evenodd" clip-rule="evenodd" d="M0 40c25.425 0 40-14.575 40-40 0 25.425 14.575 40 40 40-25.425 0-40 14.575-40 40 0-25.425-14.575-40-40-40Z" fill="#fff"/><path fill-rule="evenodd" clip-rule="evenodd" d="M0 12c7.627 0 12-4.373 12-12 0 7.627 4.373 12 12 12-7.627 0-12 4.373-12 12 0-7.627-4.373-12-12-12ZM64 24c5.085 0 8-2.915 8-8 0 5.085 2.915 8 8 8-5.085 0-8 2.915-8 8 0-5.085-2.915-8-8-8Z" fill="#FEC84B"/></svg>