<svg class="icon" viewBox="0 0 1024 1024" xmlns="http://www.w3.org/2000/svg" width="200" height="200"><path d="M638.855 56.526s99.268 159.838 132.358 216.623a2.524 2.524 0 0 1 0 2.944 2.384 2.384 0 0 1-3.505 0L596.232 97.327l42.623-40.801z" fill="#dd113c"/><path d="M346.519 639.656a588.879 588.879 0 0 1 116.654-165.447 597.291 597.291 0 0 1 58.327-51.176V549.22L346.52 639.656zM245.569 756.59 521.5 616.381v321.08l62.113 80.76V583.572l37.716-19.489a187.18 187.18 0 0 0 51.457-296.122L530.754 119.48a31.547 31.547 0 0 1 1.542-44.447 31.687 31.687 0 0 1 44.587 1.543l19.91 20.75 42.062-40.94C588.52-8.952 526.688-.68 491.215 31.989a90.575 90.575 0 0 0-3.926 127.871l143.574 149.603a128.151 128.151 0 0 1-28.042 197.415l-19.489 10.095V314.09a649.59 649.59 0 0 0-337.764 441.8v.7z" fill="#dd113c"/><path d="M583.613 583.432v65.618L521.5 680.597V615.4z" fill="#dd113c"/></svg>