<svg class="icon" viewBox="0 0 1024 1024" xmlns="http://www.w3.org/2000/svg" width="200" height="200"><path d="M.143 0h1011.953v1011.953H.143V0z" fill="#1A1D22"/><path d="M554.308 289.13a1898.376 1898.376 0 0 0-289.13-96.377C441.09 62.043 617.797 66.066 795.25 204.8c46.116 34.045 78.234 78.234 96.377 132.518l-60.236 24.094a1077.32 1077.32 0 0 0-277.082-72.283z" fill="#EDEDEE"/><path d="M265.179 216.847c86.69 52.814 183.067 76.908 289.13 72.282 14.215 15.71 30.285 31.756 48.187 48.189-27.467 22.287-27.467 42.381 0 60.235l337.318 84.33v96.376a2918.207 2918.207 0 0 0-409.6-96.377c-122.398-52.043-250.916-92.184-385.506-120.47-18.432-86.74 21.709-134.927 120.47-144.565z" fill="#EFEFF0"/><path d="M265.179 192.753a1898.376 1898.376 0 0 1 289.13 96.376c-106.063 4.626-202.44-19.468-289.13-72.282v-24.094z" fill="#626568"/><path d="M144.708 385.506a2590.021 2590.021 0 0 0 313.224 96.376c29.226 5.952 45.297 22.022 48.188 48.189 2.891 26.166 18.962 42.237 48.188 48.188A6047.624 6047.624 0 0 1 915.72 686.682c-17.492 33.66-45.586 53.73-84.33 60.236a2021.786 2021.786 0 0 1-301.176-72.283 3182.303 3182.303 0 0 0-457.788-120.47v-72.283c-9.927-59.584 14.167-91.702 72.282-96.376z" fill="#EEEEEF"/><path d="M144.708 361.412c134.59 28.286 263.108 68.427 385.506 120.47 4.144 23.902-3.903 39.948-24.094 48.189-2.891-26.167-18.962-42.237-48.188-48.189a2590.021 2590.021 0 0 1-313.224-96.376v-24.094z" fill="#5C5E62"/><path d="M72.426 481.882v72.283a3182.303 3182.303 0 0 1 457.788 120.47c-16.07 0-24.094 8.024-24.094 24.094a6126.773 6126.773 0 0 1-397.553-120.47A118.832 118.832 0 0 0 96.52 650.54c-49.008-51.923-57.03-108.134-24.094-168.659z" fill="#4F5155"/><path d="M506.12 698.73v72.282c94.93 9.637 183.284 37.755 265.035 84.33-44.092 66.499-100.304 78.546-168.659 36.14a4261.286 4261.286 0 0 0-433.694-120.47c-42.164-27.95-66.259-68.09-72.282-120.47a118.832 118.832 0 0 1 12.047-72.283 6126.773 6126.773 0 0 0 397.553 120.47z" fill="#F2F2F3"/><path d="M168.802 771.012a4261.286 4261.286 0 0 1 433.694 120.47v24.094a2109.392 2109.392 0 0 1-397.553-120.47c-9.613 5.493-13.613 13.54-12.047 24.094-20.19-8.24-28.238-24.287-24.094-48.188z" fill="#5D5F62"/><path d="M602.496 915.576c10.554-1.566 18.601 2.434 24.094 12.048-169.285 59.994-313.825 23.853-433.694-108.424-1.566-10.553 2.434-18.6 12.047-24.094a2109.392 2109.392 0 0 0 397.553 120.47z" fill="#E7E7E8"/></svg>