<svg width="20" height="20" fill="none" xmlns="http://www.w3.org/2000/svg"><path d="M17.667 18.334c.233 0 .35 0 .439-.046a.416.416 0 0 0 .182-.182c.045-.089.045-.206.045-.439V9c0-.233 0-.35-.045-.439a.416.416 0 0 0-.182-.182c-.09-.045-.206-.045-.44-.045h-2c-.233 0-.35 0-.439.045a.417.417 0 0 0-.182.182c-.045.09-.045.206-.045.44v2c0 .233 0 .35-.045.439a.417.417 0 0 1-.182.182c-.09.045-.206.045-.44.045h-2c-.233 0-.35 0-.439.045a.417.417 0 0 0-.182.183c-.045.089-.045.205-.045.439v2c0 .233 0 .35-.046.439a.417.417 0 0 1-.182.182C11.35 15 11.233 15 11 15H9c-.233 0-.35 0-.44.046a.417.417 0 0 0-.181.182c-.046.089-.046.206-.046.439v2c0 .233 0 .35.046.44.04.078.103.141.182.181.089.046.206.046.439.046h8.667ZM8.333 5.667c0-.233 0-.35.046-.44a.417.417 0 0 1 .182-.181C8.65 5 8.767 5 9 5h2c.233 0 .35 0 .44.046.078.04.141.103.181.182.046.089.046.206.046.439v2c0 .233 0 .35-.046.44a.417.417 0 0 1-.182.181c-.089.046-.206.046-.439.046H9c-.233 0-.35 0-.44-.046a.417.417 0 0 1-.181-.182c-.046-.089-.046-.206-.046-.439v-2ZM2.5 10.667c0-.233 0-.35.045-.44a.417.417 0 0 1 .183-.181C2.817 10 2.933 10 3.167 10h2c.233 0 .35 0 .439.046.078.04.142.103.182.182.045.089.045.206.045.439v2c0 .233 0 .35-.045.44a.416.416 0 0 1-.182.181c-.09.046-.206.046-.44.046h-2c-.233 0-.35 0-.438-.046a.416.416 0 0 1-.183-.182c-.045-.089-.045-.206-.045-.439v-2ZM1.667 2.334c0-.234 0-.35.045-.44a.417.417 0 0 1 .182-.182c.09-.045.206-.045.44-.045h2c.233 0 .35 0 .439.045.078.04.142.104.182.183C5 1.984 5 2.1 5 2.333v2c0 .233 0 .35-.045.439a.417.417 0 0 1-.182.182C4.683 5 4.567 5 4.333 5h-2c-.233 0-.35 0-.439-.045a.417.417 0 0 1-.182-.182c-.045-.09-.045-.206-.045-.44v-2Z" stroke="#98A2B3" stroke-width="1.2" stroke-linecap="round" stroke-linejoin="round"/></svg>