<svg width="40" height="40" fill="none" xmlns="http://www.w3.org/2000/svg"><path d="M7.75 4A3.25 3.25 0 0 1 11 .75h16c.121 0 .238.048.323.134l10.793 10.793a.457.457 0 0 1 .134.323v24A3.25 3.25 0 0 1 35 39.25H11A3.25 3.25 0 0 1 7.75 36V4Z" stroke="#D0D5DD" stroke-width="1.5"/><path d="M27 .5V8a4 4 0 0 0 4 4h7.5" stroke="#D0D5DD" stroke-width="1.5"/><rect x="1" y="18" width="29" height="16" rx="2" fill="#DD2590"/><path d="M5.024 22.727H6.92l2.003 4.887h.085l2.003-4.887h1.896V30h-1.491v-4.734h-.06l-1.883 4.699H8.458l-1.882-4.716h-.06V30H5.023v-7.273ZM14.174 30v-7.273h2.87c.551 0 1.021.106 1.41.316.387.209.683.499.887.87.206.37.309.796.309 1.279 0 .483-.104.909-.313 1.278-.208.37-.51.657-.905.863-.393.206-.869.309-1.428.309h-1.829V26.41h1.58c.297 0 .54-.051.732-.153.194-.104.339-.247.434-.43.097-.184.145-.396.145-.635 0-.242-.048-.452-.145-.632a.972.972 0 0 0-.434-.423c-.194-.102-.44-.153-.738-.153h-1.037V30h-1.538Zm9.12.1c-.53 0-1.002-.092-1.417-.274a2.419 2.419 0 0 1-.976-.76 1.91 1.91 0 0 1-.366-1.122h1.548c.01.177.068.334.174.469.11.132.254.235.434.309.18.073.382.11.607.11.234 0 .441-.042.621-.125.18-.082.321-.197.423-.344a.869.869 0 0 0 .153-.508.85.85 0 0 0-.164-.515 1.044 1.044 0 0 0-.461-.355 1.796 1.796 0 0 0-.71-.128h-.679v-1.129h.678c.232 0 .437-.04.615-.12a.99.99 0 0 0 .419-.335c.1-.144.149-.312.149-.504a.872.872 0 0 0-.494-.806 1.177 1.177 0 0 0-.54-.117 1.41 1.41 0 0 0-.571.113 1 1 0 0 0-.416.317.831.831 0 0 0-.167.483h-1.473c.007-.42.126-.789.358-1.108.232-.32.545-.57.938-.75a3.161 3.161 0 0 1 1.339-.273c.502 0 .94.091 1.317.273.377.183.669.429.877.739.21.308.315.653.313 1.037.002.407-.125.747-.38 1.019a1.728 1.728 0 0 1-.991.518v.057c.535.069.942.255 1.222.558.281.3.421.677.419 1.13.002.413-.118.782-.36 1.104-.238.322-.568.575-.99.76-.421.184-.904.276-1.449.276Z" fill="#fff"/></svg>