<svg width="40" height="40" fill="none" xmlns="http://www.w3.org/2000/svg"><path d="M7.75 4A3.25 3.25 0 0 1 11 .75h16c.121 0 .238.048.323.134l10.793 10.793a.457.457 0 0 1 .134.323v24A3.25 3.25 0 0 1 35 39.25H11A3.25 3.25 0 0 1 7.75 36V4Z" stroke="#D0D5DD" stroke-width="1.5"/><path d="M27 .5V8a4 4 0 0 0 4 4h7.5" stroke="#D0D5DD" stroke-width="1.5"/><rect x="1" y="18" width="29" height="16" rx="2" fill="#155EEF"/><path d="M4.93 22.727h1.897l2.003 4.887h.085l2.003-4.887h1.897V30h-1.492v-4.734h-.06L9.38 29.965H8.365l-1.882-4.716h-.06V30H4.93v-7.273ZM14.082 30v-7.273h2.87c.551 0 1.021.106 1.41.316.388.209.684.499.887.87.206.37.31.796.31 1.279 0 .483-.105.909-.313 1.278-.209.37-.51.657-.906.863-.393.206-.869.309-1.427.309h-1.83V26.41h1.581c.296 0 .54-.051.732-.153.194-.104.338-.247.433-.43.097-.184.145-.396.145-.635 0-.242-.048-.452-.145-.632a.972.972 0 0 0-.433-.423c-.195-.102-.44-.153-.74-.153H15.62V30h-1.538Zm6.322-1.278V27.51l3.037-4.784h1.043v1.676h-.617l-1.915 3.03v.056h4.315v1.233h-5.863ZM23.894 30v-1.648l.028-.536v-5.089h1.442V30h-1.47Z" fill="#fff"/></svg>