<svg width="40" height="40" fill="none" xmlns="http://www.w3.org/2000/svg"><path d="M7.75 4A3.25 3.25 0 0 1 11 .75h16c.121 0 .238.048.323.134l10.793 10.793a.457.457 0 0 1 .134.323v24A3.25 3.25 0 0 1 35 39.25H11A3.25 3.25 0 0 1 7.75 36V4Z" stroke="#D0D5DD" stroke-width="1.5"/><path d="M27 .5V8a4 4 0 0 0 4 4h7.5" stroke="#D0D5DD" stroke-width="1.5"/><rect x="1" y="18" width="36" height="16" rx="2" fill="#155EEF"/><path d="M4.954 22.727h1.897l2.003 4.887h.085l2.003-4.887h1.896V30h-1.492v-4.734h-.06l-1.882 4.699H8.388l-1.882-4.716h-.06V30H4.954v-7.273ZM14.104 30v-7.273h2.87c.552 0 1.022.106 1.41.316.388.209.684.499.888.87.206.37.309.796.309 1.279 0 .483-.105.909-.313 1.278-.208.37-.51.657-.905.863-.393.206-.87.309-1.428.309h-1.829V26.41h1.58c.296 0 .54-.051.732-.153.194-.104.338-.247.433-.43.097-.184.146-.396.146-.635 0-.242-.049-.452-.146-.632a.972.972 0 0 0-.433-.423c-.194-.102-.44-.153-.739-.153h-1.037V30h-1.537Zm6.475 0v-7.273h4.9v1.268h-3.362v1.733h3.11v1.268h-3.11v1.736h3.377V30H20.58Zm10.946-4.922a1.596 1.596 0 0 0-.21-.458 1.416 1.416 0 0 0-.77-.558 1.861 1.861 0 0 0-.544-.074c-.371 0-.698.092-.98.277-.279.185-.497.453-.653.806-.156.35-.234.779-.234 1.285 0 .507.076.938.23 1.293.154.355.372.626.654.813.281.185.614.277.998.277.348 0 .645-.061.891-.184.248-.126.438-.302.568-.53.133-.227.199-.495.199-.805l.313.046h-1.875v-1.158h3.043v.916c0 .64-.135 1.189-.405 1.648a2.76 2.76 0 0 1-1.115 1.058c-.474.246-1.016.37-1.627.37-.681 0-1.28-.15-1.796-.452a3.13 3.13 0 0 1-1.208-1.289c-.286-.558-.43-1.221-.43-1.988 0-.59.086-1.115.256-1.577.173-.464.415-.857.725-1.179a3.13 3.13 0 0 1 1.083-.735 3.51 3.51 0 0 1 1.339-.252c.412 0 .795.06 1.15.18.355.12.67.287.945.505.277.218.503.477.678.778.175.298.288.627.337.987h-1.562Z" fill="#fff"/></svg>