<svg class="icon" viewBox="0 0 1024 1024" xmlns="http://www.w3.org/2000/svg" width="200" height="200"><path d="M950.676 419.057a255.347 255.347 0 0 0-22.015-209.482A257.95 257.95 0 0 0 650.915 85.848a258.76 258.76 0 0 0-438.377 92.539A255.347 255.347 0 0 0 41.966 302.114a257.95 257.95 0 0 0 31.7 302.79 255.133 255.133 0 0 0 21.758 209.525 258.163 258.163 0 0 0 277.96 123.727 255.347 255.347 0 0 0 192.373 85.84 258.376 258.376 0 0 0 246.26-179.446 255.56 255.56 0 0 0 170.53-123.727 258.376 258.376 0 0 0-31.871-301.766zM565.757 957.013a190.966 190.966 0 0 1-122.703-44.37l6.016-3.456 203.893-117.67a33.918 33.918 0 0 0 16.725-29.054v-287.43l86.182 49.832a3.03 3.03 0 0 1 1.621 2.219v238.195a192.16 192.16 0 0 1-191.734 191.734zM153.62 780.98a190.71 190.71 0 0 1-22.826-128.59l6.058 3.626 204.065 117.71a32.894 32.894 0 0 0 33.278 0L623.482 629.99v99.494a3.413 3.413 0 0 1-1.408 2.645L415.578 851.206a191.99 191.99 0 0 1-261.96-70.226zM99.86 336.928a191.35 191.35 0 0 1 100.944-84.177v242.206a32.681 32.681 0 0 0 16.554 28.841l248.094 143.14-86.182 49.832a3.242 3.242 0 0 1-3.03 0L170.173 597.907a192.16 192.16 0 0 1-70.31-262.003zM807.963 501.4 559.102 356.895l85.968-49.661a3.242 3.242 0 0 1 3.03 0L854.169 426.31a191.734 191.734 0 0 1-28.841 345.796v-242.25a33.705 33.705 0 0 0-17.365-28.456zm85.756-128.975-6.016-3.627-203.68-118.692a33.108 33.108 0 0 0-33.491 0L401.456 393.842v-99.536a2.816 2.816 0 0 1 1.195-2.602l206.07-118.906a191.99 191.99 0 0 1 284.998 198.816zM354.44 548.842l-86.182-49.661a3.413 3.413 0 0 1-1.621-2.432V259.236a191.99 191.99 0 0 1 314.65-147.32l-6.058 3.413-203.851 117.668a33.918 33.918 0 0 0-16.767 29.055zm46.803-100.901 111.013-63.997 111.226 63.997v127.95l-110.8 63.997-111.226-63.996z"/></svg>