<svg width="40" height="40" fill="none" xmlns="http://www.w3.org/2000/svg"><path d="M7.75 4A3.25 3.25 0 0 1 11 .75h16c.121 0 .238.048.323.134l10.793 10.793a.457.457 0 0 1 .134.323v24A3.25 3.25 0 0 1 35 39.25H11A3.25 3.25 0 0 1 7.75 36V4Z" stroke="#D0D5DD" stroke-width="1.5"/><path d="M27 .5V8a4 4 0 0 0 4 4h7.5" stroke="#D0D5DD" stroke-width="1.5"/><rect x="1" y="18" width="28" height="16" rx="2" fill="#7F56D9"/><path d="M4.914 30v-7.273h2.87c.551 0 1.021.106 1.41.316.388.209.684.499.887.87.206.37.31.796.31 1.279 0 .483-.105.909-.313 1.278-.209.37-.51.657-.906.863-.393.206-.869.309-1.427.309h-1.83V26.41h1.581c.296 0 .54-.051.732-.153.194-.104.338-.247.433-.43.097-.184.145-.396.145-.635 0-.242-.048-.452-.145-.632a.972.972 0 0 0-.433-.423c-.195-.102-.44-.153-.74-.153H6.453V30H4.914Zm12.558-7.273V30h-1.328l-3.164-4.577h-.053V30h-1.538v-7.273h1.35l3.139 4.574h.063v-4.574h1.531Zm6.093 2.351a1.596 1.596 0 0 0-.21-.458 1.415 1.415 0 0 0-.77-.558 1.862 1.862 0 0 0-.543-.074c-.372 0-.699.092-.98.277-.28.185-.498.453-.654.806-.156.35-.234.779-.234 1.285 0 .507.076.938.23 1.293.154.355.372.626.654.813.282.185.614.277.998.277.348 0 .645-.061.891-.184.249-.126.438-.302.568-.53.133-.227.199-.495.199-.805l.313.046H22.15v-1.158h3.044v.916c0 .64-.135 1.189-.405 1.648-.27.457-.642.81-1.115 1.058-.474.246-1.016.37-1.626.37-.682 0-1.281-.15-1.797-.452a3.13 3.13 0 0 1-1.208-1.289c-.286-.558-.43-1.221-.43-1.988 0-.59.086-1.115.256-1.577.173-.464.415-.857.725-1.179.31-.322.67-.567 1.083-.735a3.51 3.51 0 0 1 1.339-.252c.412 0 .795.06 1.15.18.355.12.67.287.945.505.277.218.503.477.678.778.175.298.288.627.337.987h-1.562Z" fill="#fff"/></svg>