<svg width="40" height="40" fill="none" xmlns="http://www.w3.org/2000/svg"><path d="M7.75 4A3.25 3.25 0 0 1 11 .75h16c.121 0 .238.048.323.134l10.793 10.793a.457.457 0 0 1 .134.323v24A3.25 3.25 0 0 1 35 39.25H11A3.25 3.25 0 0 1 7.75 36V4Z" stroke="#D0D5DD" stroke-width="1.5"/><path d="M27 .5V8a4 4 0 0 0 4 4h7.5" stroke="#D0D5DD" stroke-width="1.5"/><rect x="1" y="18" width="33" height="16" rx="2" fill="#E62E05"/><path d="M4.743 30v-7.273h2.87c.551 0 1.021.106 1.41.316.388.209.684.499.887.87.206.37.31.796.31 1.279 0 .483-.105.909-.313 1.278-.209.37-.51.657-.906.863-.393.206-.869.309-1.427.309h-1.83V26.41h1.581c.296 0 .54-.051.732-.153.194-.104.338-.247.433-.43.097-.184.145-.396.145-.635 0-.242-.048-.452-.145-.632a.972.972 0 0 0-.433-.423c-.194-.102-.44-.153-.739-.153H6.281V30H4.743Zm6.475 0v-7.273h2.87c.551 0 1.02.106 1.41.316.387.209.683.499.887.87.206.37.309.796.309 1.279 0 .483-.104.909-.313 1.278-.208.37-.51.657-.905.863-.393.206-.869.309-1.428.309H12.22V26.41h1.58c.297 0 .54-.051.732-.153.194-.104.339-.247.433-.43.098-.184.146-.396.146-.635 0-.242-.048-.452-.146-.632a.972.972 0 0 0-.433-.423c-.194-.102-.44-.153-.738-.153h-1.037V30h-1.538Zm6.198-6.005v-1.268h5.973v1.268h-2.227V30h-1.52v-6.005h-2.226Zm8.398-1.268 1.467 2.479h.056l1.474-2.479h1.737l-2.22 3.637L30.598 30h-1.769l-1.492-2.482h-.056L25.789 30h-1.761l2.276-3.636-2.233-3.637h1.743Z" fill="#fff"/></svg>