<svg width="22" height="22" fill="none" xmlns="http://www.w3.org/2000/svg"><path d="M11 21.5C5.201 21.5.5 16.799.5 11S5.201.5 11 .5 21.5 5.201 21.5 11 16.799 21.5 11 21.5Z" fill="#ECFDF3"/><path d="M11 21.5C5.201 21.5.5 16.799.5 11S5.201.5 11 .5 21.5 5.201 21.5 11 16.799 21.5 11 21.5Z" stroke="#ABEFC6"/><path d="M7.5 7.495c0-.486 0-.729.101-.862a.5.5 0 0 1 .37-.198c.167-.01.369.125.773.394l5.258 3.505c.333.223.5.334.558.475a.5.5 0 0 1 0 .383c-.058.14-.225.251-.559.474L8.745 15.17c-.404.27-.606.404-.774.394a.5.5 0 0 1-.369-.198c-.101-.133-.101-.376-.101-.862v-7.01Z" stroke="#17B26A" stroke-width="1.5" stroke-linecap="round" stroke-linejoin="round"/></svg>