<svg width="40" height="40" fill="none" xmlns="http://www.w3.org/2000/svg"><g filter="url(#a)"><g clip-path="url(#b)"><path d="M4 20c0-8.837 7.163-16 16-16s16 7.163 16 16-7.163 16-16 16S4 28.837 4 20Z" fill="#F9F5FF"/><path d="M5 20c0-8.284 6.716-15 15-15 8.284 0 15 6.716 15 15 0 8.284-6.716 15-15 15-8.284 0-15-6.716-15-15Z" fill="#7F56D9"/><path d="M5 20c0-8.284 6.716-15 15-15 8.284 0 15 6.716 15 15 0 8.284-6.716 15-15 15-8.284 0-15-6.716-15-15Z" stroke="#7F56D9" stroke-width="2"/><circle cx="20" cy="20" r="5" fill="#fff"/></g></g><defs><clipPath id="b"><path d="M4 20c0-8.837 7.163-16 16-16s16 7.163 16 16-7.163 16-16 16S4 28.837 4 20Z" fill="#fff"/></clipPath><filter id="a" x="0" y="0" width="40" height="40" filterUnits="userSpaceOnUse" color-interpolation-filters="sRGB"><feFlood flood-opacity="0" result="BackgroundImageFix"/><feColorMatrix in="SourceAlpha" values="0 0 0 0 0 0 0 0 0 0 0 0 0 0 0 0 0 0 127 0" result="hardAlpha"/><feMorphology radius="4" operator="dilate" in="SourceAlpha" result="effect1_dropShadow_304_382"/><feOffset/><feComposite in2="hardAlpha" operator="out"/><feColorMatrix values="0 0 0 0 0.619152 0 0 0 0 0.465529 0 0 0 0 0.930549 0 0 0 0.24 0"/><feBlend in2="BackgroundImageFix" result="effect1_dropShadow_304_382"/><feBlend in="SourceGraphic" in2="effect1_dropShadow_304_382" result="shape"/></filter></defs></svg>