<svg width="40" height="40" fill="none" xmlns="http://www.w3.org/2000/svg"><path d="M7.75 4A3.25 3.25 0 0 1 11 .75h16c.121 0 .238.048.323.134l10.793 10.793a.457.457 0 0 1 .134.323v24A3.25 3.25 0 0 1 35 39.25H11A3.25 3.25 0 0 1 7.75 36V4Z" stroke="#D0D5DD" stroke-width="1.5"/><path d="M27 .5V8a4 4 0 0 0 4 4h7.5" stroke="#D0D5DD" stroke-width="1.5"/><rect x="1" y="18" width="27" height="16" rx="2" fill="#444CE7"/><path d="M9.053 24.819a.899.899 0 0 0-.366-.668c-.215-.158-.508-.238-.877-.238-.25 0-.463.036-.636.107a.894.894 0 0 0-.397.288.692.692 0 0 0-.135.419.598.598 0 0 0 .081.34.853.853 0 0 0 .253.253c.106.068.23.129.369.18.14.05.289.093.447.129l.654.156c.317.07.608.166.873.284.265.118.495.264.69.437.193.172.344.376.45.61.11.235.165.504.167.807-.002.445-.116.83-.34 1.157-.223.325-.545.577-.967.757-.419.177-.924.266-1.516.266-.587 0-1.098-.09-1.534-.27a2.247 2.247 0 0 1-1.016-.799c-.241-.355-.368-.794-.38-1.317h1.488c.017.244.087.447.21.61.125.161.292.283.5.366.211.08.45.12.714.12.26 0 .487-.037.679-.113a1.04 1.04 0 0 0 .45-.316.73.73 0 0 0 .16-.465c0-.163-.048-.3-.145-.412a1.103 1.103 0 0 0-.42-.284 4.272 4.272 0 0 0-.67-.213l-.792-.199c-.614-.15-1.098-.382-1.453-.7-.355-.317-.531-.744-.529-1.282-.002-.44.115-.825.352-1.154.239-.329.567-.585.983-.77.417-.185.89-.277 1.42-.277.54 0 1.012.092 1.414.277.405.184.72.441.945.77.225.33.34.71.348 1.144H9.053Zm5.352 2.653h1.307l.657.845.646.753 1.219 1.527h-1.435l-.838-1.03-.43-.611-1.126-1.484Zm3.939-1.108c0 .793-.15 1.467-.451 2.024a3.127 3.127 0 0 1-1.222 1.275 3.452 3.452 0 0 1-1.733.436 3.443 3.443 0 0 1-1.74-.44 3.134 3.134 0 0 1-1.218-1.275c-.298-.556-.447-1.23-.447-2.02 0-.794.149-1.468.447-2.024a3.11 3.11 0 0 1 1.218-1.272 3.443 3.443 0 0 1 1.74-.44c.642 0 1.22.147 1.733.44.516.291.923.715 1.222 1.271.3.557.45 1.232.45 2.025Zm-1.56 0c0-.514-.076-.947-.23-1.3-.152-.353-.366-.62-.643-.803a1.73 1.73 0 0 0-.973-.273 1.73 1.73 0 0 0-.973.273c-.277.183-.492.45-.646.803-.152.353-.228.786-.228 1.3 0 .513.076.947.228 1.3.154.352.37.62.646.802.277.182.601.273.973.273s.696-.09.973-.273c.277-.182.491-.45.643-.803.154-.352.23-.786.23-1.3ZM19.484 30v-7.273h1.537v6.005h3.118V30h-4.655Z" fill="#fff"/></svg>