<svg width="40" height="40" fill="none" xmlns="http://www.w3.org/2000/svg"><path d="M7.75 4A3.25 3.25 0 0 1 11 .75h16c.121 0 .238.048.323.134l10.793 10.793a.457.457 0 0 1 .134.323v24A3.25 3.25 0 0 1 35 39.25H11A3.25 3.25 0 0 1 7.75 36V4Z" stroke="#D0D5DD" stroke-width="1.5"/><path d="M27 .5V8a4 4 0 0 0 4 4h7.5" stroke="#D0D5DD" stroke-width="1.5"/><rect x="1" y="18" width="28" height="16" rx="2" fill="#7F56D9"/><path d="M8.962 24.819a.899.899 0 0 0-.366-.668c-.215-.158-.507-.238-.877-.238-.25 0-.463.036-.635.107a.894.894 0 0 0-.398.288.692.692 0 0 0-.135.419.599.599 0 0 0 .082.34.853.853 0 0 0 .252.253c.106.068.23.129.37.18.139.05.288.093.447.129l.653.156c.317.07.608.166.874.284.265.118.494.264.688.437.195.172.345.376.451.61.11.235.165.504.167.807-.002.445-.116.83-.34 1.157-.223.325-.545.577-.966.757-.42.177-.925.266-1.517.266-.587 0-1.098-.09-1.534-.27a2.247 2.247 0 0 1-1.016-.799c-.241-.355-.368-.794-.38-1.317H6.27c.017.244.087.447.21.61.125.161.292.283.5.366.211.08.45.12.714.12.26 0 .487-.037.679-.113a1.04 1.04 0 0 0 .45-.316.73.73 0 0 0 .16-.465c0-.163-.048-.3-.145-.412a1.103 1.103 0 0 0-.42-.284 4.272 4.272 0 0 0-.67-.213l-.792-.199c-.613-.15-1.098-.382-1.453-.7-.355-.317-.531-.744-.529-1.282-.002-.44.115-.825.352-1.154.239-.329.567-.585.983-.77.417-.185.89-.277 1.42-.277.54 0 1.012.092 1.414.277.405.184.72.441.945.77.225.33.34.71.348 1.144H8.962Zm3.921-2.092 1.758 5.526h.068l1.761-5.526h1.705L15.668 30h-1.982l-2.51-7.273h1.707Zm10.58 2.351a1.596 1.596 0 0 0-.21-.458 1.416 1.416 0 0 0-.77-.558 1.861 1.861 0 0 0-.544-.074c-.372 0-.698.092-.98.277-.28.185-.497.453-.654.806-.156.35-.234.779-.234 1.285 0 .507.077.938.23 1.293.155.355.373.626.654.813.282.185.615.277.998.277.348 0 .645-.061.892-.184.248-.126.437-.302.568-.53.132-.227.198-.495.198-.805l.313.046h-1.875v-1.158h3.043v.916c0 .64-.135 1.189-.404 1.648a2.76 2.76 0 0 1-1.116 1.058c-.473.246-1.015.37-1.626.37-.682 0-1.28-.15-1.797-.452a3.13 3.13 0 0 1-1.207-1.289c-.287-.558-.43-1.221-.43-1.988 0-.59.085-1.115.256-1.577.173-.464.414-.857.724-1.179a3.13 3.13 0 0 1 1.083-.735 3.51 3.51 0 0 1 1.34-.252c.411 0 .794.06 1.15.18.355.12.67.287.944.505.277.218.503.477.678.778.176.298.288.627.338.987h-1.563Z" fill="#fff"/></svg>