<svg width="40" height="40" fill="none" xmlns="http://www.w3.org/2000/svg"><path d="M7.75 4A3.25 3.25 0 0 1 11 .75h16c.121 0 .238.048.323.134l10.793 10.793a.457.457 0 0 1 .134.323v24A3.25 3.25 0 0 1 35 39.25H11A3.25 3.25 0 0 1 7.75 36V4Z" stroke="#D0D5DD" stroke-width="1.5"/><path d="M27 .5V8a4 4 0 0 0 4 4h7.5" stroke="#D0D5DD" stroke-width="1.5"/><rect x="1" y="18" width="28" height="16" rx="2" fill="#7F56D9"/><path d="M4.764 23.995v-1.268h5.973v1.268H8.511V30H6.99v-6.005H4.764Zm8.495-1.268V30H11.72v-7.273h1.538ZM14.524 30v-7.273h4.815v1.268h-3.278v1.733h2.958v1.268h-2.958V30h-1.537Zm5.85 0v-7.273h4.815v1.268H21.91v1.733h2.958v1.268h-2.958V30h-1.538Z" fill="#fff"/></svg>