<svg class="icon" viewBox="0 0 1024 1024" xmlns="http://www.w3.org/2000/svg" width="200" height="200"><path d="M918.61 591.872 813.937 408.678l44.85-85.995a23.92 23.92 0 0 0 5.244-29.9l-57.59-103.957a24.678 24.678 0 0 0-20.173-11.223H572.416L524.554 93.86a22.446 22.446 0 0 0-17.203-11.96H394.465a23.92 23.92 0 0 0-20.193 11.96v4.505L267.366 281.54H164.884a23.941 23.941 0 0 0-20.93 11.223L84.89 397.414a26.931 26.931 0 0 0 0 23.962l106.168 184.668-47.841 83.763a26.931 26.931 0 0 0 0 23.9l54.579 95.724a24.678 24.678 0 0 0 20.93 11.96H432.58l51.589 89.703a24.678 24.678 0 0 0 18.698 11.98h121.119a23.92 23.92 0 0 0 20.193-11.96l105.431-184.688h94.208a26.194 26.194 0 0 0 20.193-12.698l54.58-96.46a23.183 23.183 0 0 0 0-25.437zm-132.342 11.96L731.69 502.866l-224.317 395.55-61.318-100.925H221.737l53.842-97.956H389.98L165.663 305.5h117.391l111.411-198.902 56.075 97.956-57.57 100.926h448.615l-56.791 100.229L897.7 603.832H786.289z" fill="#605BEC"/><path d="m502.129 641.946 139.837-224.297H361.554l140.575 224.297z" fill="#605BEC"/></svg>