<svg width="14" height="14" fill="none" xmlns="http://www.w3.org/2000/svg"><path fill-rule="evenodd" clip-rule="evenodd" d="M9.042 2.625H5.786L5.53 1.344l-1.144.229.21 1.052H1.459v1.167H2.77c.078.245.193.575.35.944.27.636.68 1.422 1.26 2.082a14.75 14.75 0 0 1-1.625 1.05A19.714 19.714 0 0 1 1.53 8.5l-.017.007-.004.002.241.532.242.53h.002l.005-.003.022-.01a10.271 10.271 0 0 0 .36-.173c.238-.119.57-.29.946-.502.582-.328 1.29-.765 1.923-1.264.634.5 1.34.936 1.923 1.264a20.875 20.875 0 0 0 1.031.544l-.232.555-.93 2.343 1.083.431.55-1.382h2.483l.55 1.382 1.084-.43-.927-2.334-1.373-3.285h-1.15L8.654 8.35l-.016-.008a19.714 19.714 0 0 1-.893-.473 14.75 14.75 0 0 1-1.626-1.05c.582-.66.99-1.446 1.26-2.082.158-.369.273-.7.35-.944h1.312V2.625ZM6.307 4.28c-.248.584-.598 1.24-1.057 1.76-.459-.52-.809-1.176-1.057-1.76A9.519 9.519 0 0 1 4 3.792H6.5a9.518 9.518 0 0 1-.192.488Zm4.383 5.928H9.143l.773-1.85.774 1.85Z" fill="#4E5969"/></svg>