<svg width="200" height="200" viewBox="0 0 20 40" fill="none" xmlns="http://www.w3.org/2000/svg"><g clip-path="url(#a)"><path d="m20.511 15.302-3.267 12.89a.238.238 0 0 0 .239.291h6.53a.238.238 0 0 0 .239-.29l-3.284-12.891a.238.238 0 0 0-.457 0ZM2.53 18.223 0 28.193a.238.238 0 0 0 .238.29H5.28a.238.238 0 0 0 .239-.29l-2.533-9.97a.238.238 0 0 0-.455 0Z" fill="#00E5E5"/><path d="m6.993 9.968-4.61 18.224a.239.239 0 0 0 .226.29h9.224a.238.238 0 0 0 .238-.29L7.45 9.968a.238.238 0 0 0-.456 0Z" fill="#006EFF"/><path d="M14.947 4.173a.239.239 0 0 0-.455 0L8.19 28.192a.238.238 0 0 0 .238.29h12.595a.24.24 0 0 0 .238-.183.239.239 0 0 0 0-.107L14.948 4.173Z" fill="#006EFF"/><path d="M10.318 12.619 6.319 28.19a.238.238 0 0 0 .238.293h7.978a.239.239 0 0 0 .238-.293l-4-15.571a.238.238 0 0 0-.455 0Z" fill="#00E5E5"/></g><defs><clipPath id="a"><path fill="#fff" transform="translate(0 4)" d="M0 0h99.941v24.567H0z"/></clipPath></defs></svg>