<svg class="icon" viewBox="0 0 1024 1024" xmlns="http://www.w3.org/2000/svg" width="200" height="200"><path d="M96.201 636.312c-.147-113.413-.294-226.826-.294-340.239 0-14.876 7.659-26.512 20.473-34.024 45.512-26.659 91.025-53.318 136.832-79.536 71.14-40.947 142.43-81.599 213.717-122.398 7.365-4.124 14.582-8.395 21.505-13.256 19.442-13.403 39.031-16.054 60.094-3.535 27.396 16.35 54.939 32.257 82.482 48.164 88.08 50.962 176.306 101.777 264.385 152.592 9.868 5.744 19.884 11.194 29.605 17.086 14.14 8.542 21.505 21.062 21.505 37.706 0 147.731.294 295.463-.148 443.194 0 15.466-7.217 28.575-21.799 36.97-34.76 20.179-70.551 38.885-104.575 59.947-48.9 30.194-100.01 56.117-148.763 86.606-29.016 18.117-59.505 34.024-89.11 50.963-13.109 7.511-26.07 15.17-39.032 22.977-13.845 8.395-27.838 8.837-41.977.736-56.412-32.55-112.824-65.102-169.384-97.653-61.861-35.644-123.723-71.14-185.437-106.785-11.194-6.48-22.241-12.814-32.993-19.884-11.489-7.659-17.086-19.148-17.086-32.698-.147-34.76.148-69.52.295-104.281 1.62-.59 1.62-1.62-.295-2.652zm356.589-225.5c2.209-1.767 4.418-3.682 6.775-5.155 68.931-39.621 137.863-79.242 206.942-118.863 2.798-1.62 6.48-1.62 6.628-6.186.147-4.86-4.124-4.713-6.775-6.186-40.652-23.567-81.599-46.838-122.104-70.847-16.79-10.015-32.845-8.542-48.458.59-45.954 26.512-91.467 53.613-137.274 80.42-31.962 18.706-64.218 37.117-96.327 55.675-18.412 10.605-27.543 25.334-27.249 47.722.884 89.552.59 179.104.147 268.656-.147 20.18 9.28 33.583 25.334 43.156 31.373 18.706 63.187 37.117 95.15 54.94 10.899 6.038 21.062 13.992 35.79 18.41V505.52c6.481 19.59 18.56 34.024 36.676 44.629 27.838 16.202 63.187 12.52 86.312-10.458 26.954-26.659 28.721-62.892 12.814-90.14-16.35-28.428-43.598-37.56-74.381-38.738zm82.482 429.644c14.287-3.83 25.923-13.993 38.884-21.357 40.947-23.272 81.304-47.722 122.545-70.552 26.954-15.023 52.877-31.667 80.715-45.218 16.791-8.1 29.605-22.535 29.605-43.45.148-92.94.295-185.732.148-278.672 0-11.194-5.156-13.993-13.846-7.07-26.512 20.768-57.295 34.466-86.164 51.257-54.497 31.814-109.142 63.334-163.786 95.002-8.543 4.86-11.783 10.457-11.636 20.473.294 96.18.147 192.507.147 288.688-.294 3.535-1.473 7.659 3.388 10.899z" fill="#066AF3"/><path d="M96.201 636.312c1.915 1.032 1.915 2.063 0 3.094v-3.094z" fill="#4372E0"/><path d="M391.37 505.372c-5.45-44.334 13.845-74.087 61.42-94.56 30.93 1.178 58.032 10.31 74.38 38.59 15.76 27.396 14.14 63.482-12.813 90.141-23.272 22.977-58.474 26.66-86.312 10.458-18.117-10.605-30.342-25.04-36.675-44.629z" fill="#002A9A"/></svg>