<svg width="40" height="40" fill="none" xmlns="http://www.w3.org/2000/svg"><path d="M7.75 4A3.25 3.25 0 0 1 11 .75h16c.121 0 .238.048.323.134l10.793 10.793a.457.457 0 0 1 .134.323v24A3.25 3.25 0 0 1 35 39.25H11A3.25 3.25 0 0 1 7.75 36V4Z" stroke="#D0D5DD" stroke-width="1.5"/><path d="M27 .5V8a4 4 0 0 0 4 4h7.5" stroke="#D0D5DD" stroke-width="1.5"/><rect x="1" y="18" width="26" height="16" rx="2" fill="#079455"/><path d="m6.386 22.727 1.467 2.479h.057l1.474-2.479h1.736L8.9 26.364 11.17 30H9.4L7.91 27.518h-.057L6.362 30H4.6l2.276-3.636-2.233-3.637h1.743ZM12.093 30v-7.273h1.538v6.005h3.118V30h-4.656Zm9.62-5.181a.899.899 0 0 0-.367-.668c-.215-.158-.507-.238-.877-.238-.25 0-.463.036-.635.107a.894.894 0 0 0-.398.288.692.692 0 0 0-.135.419.598.598 0 0 0 .082.34.853.853 0 0 0 .252.253c.106.068.23.129.37.18.139.05.288.093.447.129l.653.156c.317.07.608.166.873.284.266.118.495.264.69.437.194.172.344.376.45.61.11.235.165.504.167.807-.002.445-.116.83-.34 1.157-.223.325-.545.577-.966.757-.42.177-.925.266-1.517.266-.587 0-1.098-.09-1.534-.27a2.247 2.247 0 0 1-1.015-.799c-.242-.355-.369-.794-.38-1.317h1.487c.017.244.087.447.21.61.125.161.292.283.5.366.211.08.45.12.714.12.26 0 .487-.037.679-.113a1.04 1.04 0 0 0 .45-.316.73.73 0 0 0 .16-.465c0-.163-.048-.3-.145-.412a1.103 1.103 0 0 0-.42-.284 4.274 4.274 0 0 0-.67-.213l-.792-.199c-.613-.15-1.098-.382-1.453-.7-.355-.317-.531-.744-.529-1.282-.002-.44.115-.825.352-1.154.239-.329.567-.585.983-.77.417-.185.89-.277 1.42-.277.54 0 1.012.092 1.414.277.405.184.72.441.945.77.225.33.34.71.348 1.144h-1.474Z" fill="#fff"/></svg>