<svg width="40" height="40" fill="none" xmlns="http://www.w3.org/2000/svg"><path d="M7.75 4A3.25 3.25 0 0 1 11 .75h16c.121 0 .238.048.323.134l10.793 10.793a.457.457 0 0 1 .134.323v24A3.25 3.25 0 0 1 35 39.25H11A3.25 3.25 0 0 1 7.75 36V4Z" stroke="#D0D5DD" stroke-width="1.5"/><path d="M27 .5V8a4 4 0 0 0 4 4h7.5" stroke="#D0D5DD" stroke-width="1.5"/><rect x="1" y="18" width="28" height="16" rx="2" fill="#444CE7"/><path d="m6.088 22.727 1.466 2.479h.057l1.474-2.479h1.736l-2.22 3.637L10.872 30H9.102l-1.491-2.482h-.057L6.063 30H4.3l2.277-3.636-2.234-3.637h1.744Zm5.706 0h1.896l2.003 4.887h.086l2.002-4.887h1.897V30h-1.492v-4.734h-.06l-1.882 4.699h-1.016l-1.882-4.716h-.06V30h-1.492v-7.273ZM20.944 30v-7.273h1.538v6.005H25.6V30h-4.655Z" fill="#fff"/></svg>