<svg class="icon" viewBox="0 0 1024 1024" xmlns="http://www.w3.org/2000/svg" width="48" height="48"><path d="M609.628 392.5a68.28 68.28 0 1 0 0-136.582 68.28 68.28 0 0 0 0 136.581zm165.09.43a39.322 39.322 0 1 0 0-78.644 39.322 39.322 0 0 0 0 78.643zm0 314.634a39.322 39.322 0 1 0 0-78.664 39.322 39.322 0 0 0 0 78.643zm-271.402-467.62a39.322 39.322 0 1 0 0-78.664 39.322 39.322 0 0 0 0 78.643zm-270.56 152.985a39.322 39.322 0 1 0 0-78.643 39.322 39.322 0 0 0 0 78.643zm0 318.096a39.322 39.322 0 1 0 0-78.644 39.322 39.322 0 0 0 0 78.644zm665.149-168.55a28.529 28.529 0 1 0 0-57.058 28.529 28.529 0 0 0 0 57.057zM702.976 202.341a28.529 28.529 0 1 0 0-57.057 28.529 28.529 0 0 0 0 57.037zm178.483 104.141a12.534 12.534 0 1 0 0-25.067 12.534 12.534 0 0 0 0 25.067zm0 438.252a12.534 12.534 0 1 0 0-25.068 12.534 12.534 0 0 0 0 25.068zM509.79 962.97a12.534 12.534 0 1 0 0-25.047 12.534 12.534 0 0 0 0 25.067zM123.411 744.735a12.534 12.534 0 1 0 0-25.068 12.534 12.534 0 0 0 0 25.068zm0-440.402a12.534 12.534 0 1 0 0-25.068 12.534 12.534 0 0 0 0 25.068zM498.995 86.508a12.534 12.534 0 1 0 0-25.068 12.534 12.534 0 0 0 0 25.068zM303.206 202.342a28.529 28.529 0 1 0 0-57.057 28.529 28.529 0 0 0 0 57.037zM110.45 542.474a28.529 28.529 0 1 0 0-57.057 28.529 28.529 0 0 0 0 57.057zm198.799 337.961a28.529 28.529 0 1 0 0-57.037 28.529 28.529 0 0 0 0 57.058zm393.728 3.891a28.529 28.529 0 1 0 0-57.036 28.529 28.529 0 0 0 0 57.036zm-199.66-17.715a39.322 39.322 0 1 0 0-78.643 39.322 39.322 0 0 0 0 78.643zm216.085-291.287a64.84 64.84 0 1 0 0-129.659 64.84 64.84 0 0 0 0 129.639zm-216.085 31.11a92.488 92.488 0 1 0 0-184.976 92.488 92.488 0 0 0 0 184.975zm-215.674-31.11a64.84 64.84 0 1 0 0-129.659 64.84 64.84 0 0 0 0 129.639zm106.762-186.286a64.84 64.84 0 1 0 0-129.659 64.84 64.84 0 0 0 0 129.66zm0 376.443a64.82 64.82 0 1 0 0-129.659 64.82 64.82 0 0 0 0 129.638zm215.224 3.461a64.84 64.84 0 1 0 0-129.659 64.84 64.84 0 0 0 0 129.639z" fill="#1679FF"/><path d="M393.953 389.059s43.213-12.534 33.28 71.741 91.198 25.068 91.198 25.068l-14.684-63.53s-59.659 10.363-58.368-57.917c23.777-92.918-51.405 24.638-51.405 24.638zm35.881 176.312s9.933 55.767-35.88 73.052c-89.887 37.171 7.782 102.85 7.782 102.85l43.212-76.922a64.84 64.84 0 0 1 43.213-60.498c104.182-32.85-58.327-38.482-58.327-38.482z" fill="#1679FF"/><path d="M545.67 705.413a69.351 69.351 0 0 0 3.44 20.746 53.576 53.576 0 0 0-34.57-23.756h-26.788a58.778 58.778 0 0 0-35.881 25.477c4.382-8.54 6.594-18.043 6.492-27.648a58.327 58.327 0 0 0-4.321-22.917 56.218 56.218 0 0 0 38.031 22.036h25.928a61.788 61.788 0 0 0 33.28-21.176 61.379 61.379 0 0 0-5.612 27.238z" fill="#1679FF"/></svg>